<svg width="136" height="51" viewBox="0 0 136 51" fill="none" xmlns="http://www.w3.org/2000/svg">
<g clip-path="url(#clip0_984_246)">
<path d="M4.91385 24.3054C4.86482 24.2412 4.80006 24.1908 4.72585 24.159C4.65163 24.1271 4.57046 24.115 4.49018 24.1237C4.4099 24.1325 4.33324 24.1617 4.26758 24.2088C4.20193 24.2558 4.14952 24.3189 4.11541 24.3921L0.0695969 32.4812C0.0327402 32.5549 0.0153383 32.6368 0.0190437 32.7192C0.022749 32.8016 0.0474385 32.8815 0.0907681 32.9517C0.134098 33.0218 0.19463 33.0796 0.266615 33.1198C0.338602 33.1599 0.419653 33.181 0.502074 33.181H6.13566C6.22589 33.1831 6.31479 33.159 6.39155 33.1116C6.46833 33.0641 6.52967 32.9954 6.56813 32.9137C7.78338 30.4025 7.0469 26.5843 4.91385 24.3054Z" fill="white"/>
<path d="M7.88453 16.947C6.87643 18.4981 6.28895 20.2848 6.17974 22.1315C6.07054 23.9782 6.44335 25.8216 7.26161 27.4808L9.97763 32.9127C10.0178 32.9931 10.0795 33.0606 10.1559 33.1079C10.2323 33.1551 10.3203 33.1801 10.4101 33.1801H16.0427C16.1251 33.1801 16.2061 33.159 16.2781 33.1188C16.3501 33.0787 16.4107 33.0209 16.454 32.9508C16.4973 32.8806 16.522 32.8006 16.5257 32.7182C16.5294 32.6359 16.512 32.554 16.4751 32.4803C16.4751 32.4803 8.89747 17.3231 8.70703 16.944C8.66931 16.8668 8.61071 16.8018 8.53779 16.7564C8.46486 16.7111 8.38067 16.6872 8.29484 16.6875C8.20893 16.6878 8.1249 16.7123 8.05236 16.7582C7.97975 16.8042 7.92162 16.8696 7.88453 16.947Z" fill="white"/>
<path d="M73.9506 23.4348C73.9506 25.4378 74.8799 27.0281 78.5142 27.7302C80.6831 28.1854 81.1369 28.5355 81.1369 29.2583C81.1369 29.9604 80.6816 30.4149 79.1542 30.4149C77.3086 30.3816 75.4995 29.8922 73.8887 28.99V32.2525C74.9833 32.7894 76.4286 33.3883 79.1136 33.3883C82.9131 33.3883 84.4208 31.6939 84.4208 29.1756L73.9506 23.4348ZM84.4208 29.1756C84.4208 26.8007 83.1611 25.6855 79.6088 24.9216C77.6472 24.4879 77.1722 24.0544 77.1722 23.4348C77.1722 22.6508 77.8742 22.3197 79.1754 22.3197C80.7449 22.3197 82.2934 22.7947 83.7597 23.4555V20.3371C82.3536 19.6972 80.8232 19.3798 79.2786 19.408C75.7678 19.408 73.9506 20.936 73.9506 23.4348" fill="white"/>
<path d="M122.768 19.6133V33.1809H125.659V22.8348L126.877 25.5812L130.966 33.1809H134.6V19.6133H131.709V28.3693L130.615 25.829L127.332 19.6133H122.768Z" fill="white"/>
<path d="M104.378 19.6133H101.219V33.1809H104.378V19.6133Z" fill="white"/>
<path d="M97.5726 29.1756C97.5726 26.8007 96.3129 25.6855 92.7614 24.9216C90.7998 24.4879 90.3249 24.0544 90.3249 23.4348C90.3249 22.6508 91.0268 22.3197 92.3279 22.3197C93.8975 22.3197 95.446 22.7947 96.9122 23.4555V20.3371C95.5062 19.6972 93.975 19.3798 92.4304 19.408C88.9204 19.408 87.1028 20.936 87.1028 23.4348C87.1028 25.4378 88.0324 27.0281 91.6668 27.7302C93.8349 28.1854 94.2895 28.5355 94.2895 29.2583C94.2895 29.9604 93.8341 30.4149 92.3068 30.4149C90.461 30.3816 88.6521 29.8922 87.041 28.99V32.2525C88.1356 32.7894 89.5808 33.3883 92.2653 33.3883C96.0656 33.3883 97.5726 31.6939 97.5726 29.1756Z" fill="white"/>
<path d="M49.4062 19.6133V33.1809H55.9005L56.923 30.2484H52.5864V19.6133H49.4062Z" fill="white"/>
<path d="M36.5742 19.6133V22.5455H40.0849V33.1809H43.2649V22.5455H47.0234V19.6133H36.5742Z" fill="white"/>
<path d="M31.9604 19.6133H27.7927L23.0615 33.1809H26.6746L27.3453 30.8959C28.9972 31.3809 30.7537 31.3809 32.4055 30.8959L33.0762 33.1809H36.6901L31.9604 19.6133ZM29.8765 28.4492C29.2879 28.4492 28.7023 28.3649 28.1377 28.1991L29.8765 22.2782L31.6152 28.2011C31.0504 28.3663 30.4649 28.4498 29.8765 28.4492Z" fill="white"/>
<path d="M67.0988 19.6133H62.9314L58.2002 33.1809H61.814L62.4847 30.8959C64.1366 31.3809 65.8931 31.3809 67.545 30.8959L68.2157 33.1809H71.8295L67.0988 19.6133ZM65.0151 28.4492C64.4266 28.4492 63.8411 28.3649 63.2764 28.1991L65.0151 22.2782L66.7539 28.2011C66.1891 28.3663 65.6036 28.4498 65.0151 28.4492Z" fill="white"/>
<path d="M115.767 19.6133H111.6L106.868 33.1809H110.482L111.153 30.8959C112.805 31.3809 114.561 31.3809 116.214 30.8959L116.884 33.1809H120.498L115.767 19.6133ZM113.682 28.4492C113.093 28.4492 112.508 28.3649 111.943 28.1991L113.682 22.2782L115.421 28.2011C114.856 28.3663 114.271 28.4498 113.682 28.4492Z" fill="white"/>
</g>
<defs>
<clipPath id="clip0_984_246">
<rect width="135.362" height="50.076" fill="white" transform="translate(0.00195312)"/>
</clipPath>
</defs>
</svg>
