<svg width="60" height="51" viewBox="0 0 60 51" fill="none" xmlns="http://www.w3.org/2000/svg">
<g clip-path="url(#clip0_984_325)">
<mask id="mask0_984_325" style="mask-type:luminance" maskUnits="userSpaceOnUse" x="0" y="13" width="116" height="24">
<path d="M115.556 13.1406H0.000976562V36.9825H115.556V13.1406Z" fill="white"/>
</mask>
<g mask="url(#mask0_984_325)">
<path d="M6.76244 20.0532L6.75125 20.0631L6.74059 20.0737C6.06854 20.7364 5.53536 21.5265 5.17224 22.3977C4.80942 23.2683 4.62364 24.2023 4.62573 25.1453C4.62058 26.0877 4.8012 27.0217 5.15729 27.8941C5.51367 28.7673 6.03883 29.5616 6.70265 30.2315L6.71388 30.2429L6.72573 30.2536C6.92947 30.4376 7.09359 30.6613 7.20808 30.9109C7.32258 31.1605 7.38505 31.4307 7.39168 31.7052C7.3983 31.9797 7.34896 32.2527 7.24666 32.5075C7.14434 32.7624 6.99121 32.9936 6.79659 33.1874C6.60197 33.381 6.36995 33.5331 6.11465 33.6342C5.85935 33.7353 5.58614 33.7833 5.31168 33.7754C5.0372 33.7675 4.76722 33.7037 4.51819 33.5881C4.26915 33.4724 4.04628 33.3072 3.86317 33.1026L3.85309 33.0914L3.84244 33.0807C1.74521 30.9704 0.57209 28.1135 0.581106 25.1383C0.590123 22.1631 1.78054 19.3133 3.89052 17.2159L3.90229 17.2041L3.91336 17.1918C4.09708 16.9869 4.32068 16.8217 4.57048 16.7062C4.82028 16.5907 5.09103 16.5275 5.36613 16.5202C5.64123 16.5131 5.9149 16.5621 6.17041 16.6644C6.4259 16.7666 6.65783 16.92 6.852 17.1149C7.04618 17.31 7.1985 17.5426 7.29965 17.7985C7.4008 18.0544 7.44865 18.3283 7.44026 18.6034C7.43188 18.8785 7.36744 19.1489 7.25089 19.3982C7.13434 19.6475 6.96813 19.8704 6.76244 20.0532Z" stroke="white" stroke-width="1.15555"/>
<path d="M16.9164 20.1358L16.9049 20.1228L16.8926 20.1105C15.5493 18.7616 13.726 18.0003 11.8223 17.9935C9.91856 17.9867 8.08986 18.735 6.737 20.0743L6.72583 20.0854L6.71527 20.097C6.53055 20.3009 6.30618 20.465 6.05586 20.5792C5.80555 20.6934 5.53455 20.7553 5.25948 20.7611C4.98441 20.767 4.71104 20.7166 4.45611 20.6131C4.20117 20.5097 3.97002 20.3553 3.77682 20.1594C3.58361 19.9636 3.43241 19.7303 3.33247 19.4739C3.23252 19.2176 3.18595 18.9436 3.19558 18.6686C3.2052 18.3936 3.27084 18.1235 3.38847 17.8748C3.5061 17.6261 3.67324 17.404 3.87968 17.2221L3.89298 17.2103L3.90555 17.1979C4.94848 16.1586 6.18646 15.3355 7.54839 14.7761C8.91031 14.2165 10.3694 13.9316 11.8417 13.9376C13.314 13.9436 14.7707 14.2404 16.128 14.811C17.4854 15.3816 18.7166 16.2146 19.7511 17.2624L19.764 17.2756L19.7779 17.2879C19.9838 17.4714 20.15 17.695 20.2663 17.945C20.3826 18.195 20.4465 18.4663 20.4541 18.7419C20.4618 19.0176 20.4129 19.2919 20.3106 19.548C20.2083 19.8041 20.0547 20.0365 19.8592 20.231C19.6637 20.4256 19.4305 20.5781 19.174 20.6792C18.9174 20.7803 18.6429 20.8278 18.3673 20.8189C18.0916 20.8101 17.8208 20.7448 17.5713 20.6273C17.3217 20.5099 17.0989 20.3426 16.9164 20.1358Z" stroke="white" stroke-width="1.15555"/>
<path d="M11.7885 31.7759C10.9209 31.7771 10.0618 31.6053 9.26138 31.2705C8.46104 30.9356 7.73551 30.4445 7.12727 29.8258C6.89221 29.5614 6.60565 29.3477 6.28512 29.1978C5.9646 29.048 5.61685 28.9651 5.26319 28.9543C4.90953 28.9435 4.55739 29.0051 4.22833 29.1351C3.89928 29.2652 3.60022 29.4611 3.34949 29.7107C3.09876 29.9604 2.90162 30.2586 2.77014 30.5871C2.63867 30.9155 2.57562 31.2674 2.58487 31.6211C2.59413 31.9748 2.67547 32.3229 2.82393 32.6441C2.97239 32.9653 3.18485 33.2528 3.44829 33.489C4.53806 34.5908 5.83457 35.4667 7.2635 36.0666C8.69246 36.6664 10.2257 36.9784 11.7754 36.9846C13.3252 36.9907 14.8608 36.691 16.2945 36.1026C17.7282 35.5141 19.0317 34.6485 20.1301 33.5554C20.3729 33.315 20.5658 33.0291 20.698 32.7141C20.8302 32.3991 20.8991 32.0611 20.9007 31.7195C20.9023 31.3778 20.8366 31.0393 20.7074 30.723C20.5782 30.4068 20.3879 30.1191 20.1475 29.8764C19.907 29.6337 19.6211 29.4407 19.3061 29.3085C18.9911 29.1763 18.6532 29.1074 18.3116 29.1058C17.9699 29.1042 17.6314 29.1699 17.3151 29.2991C16.9989 29.4283 16.7112 29.6186 16.4685 29.8591M11.7885 31.7759L11.7859 32.3536C11.7864 32.3537 11.787 32.3537 11.7876 32.3537M11.7885 31.7759C12.6563 31.7798 13.5164 31.6126 14.3194 31.2836C15.1225 30.9547 15.8528 30.4706 16.4685 29.8591M11.7885 31.7759L11.7893 32.3537C11.7887 32.3537 11.7881 32.3537 11.7876 32.3537M16.4685 29.8591L16.8754 30.2693M11.7876 32.3537C10.8437 32.3547 9.90911 32.1678 9.03844 31.8035C8.16715 31.439 7.37737 30.9044 6.71527 30.2309L6.70508 30.2206L6.69544 30.2097C6.5126 30.004 6.28972 29.8378 6.04042 29.7212C5.79112 29.6047 5.52066 29.5403 5.24559 29.5319C4.97052 29.5235 4.69663 29.5713 4.4407 29.6725C4.18476 29.7736 3.95217 29.926 3.75715 30.1201C3.56214 30.3143 3.40881 30.5462 3.30655 30.8018C3.20429 31.0572 3.15526 31.3309 3.16245 31.606C3.16964 31.8811 3.23291 32.1518 3.34839 32.4017C3.46386 32.6515 3.6291 32.875 3.834 33.0588L3.8469 33.0703L3.85908 33.0827C4.89539 34.1304 6.1283 34.9634 7.48714 35.5339C8.846 36.1043 10.304 36.4009 11.7777 36.4068C13.2514 36.4127 14.7118 36.1276 16.0751 35.5681C17.4385 35.0085 18.678 34.1854 19.7226 33.1458L19.7235 33.1449C19.9123 32.9579 20.0624 32.7355 20.1653 32.4905C20.2682 32.2454 20.3217 31.9825 20.3229 31.7168C20.3243 31.451 20.2731 31.1876 20.1726 30.9417C20.072 30.6956 19.924 30.4718 19.737 30.2831C19.55 30.0942 19.3276 29.9441 19.0825 29.8413C18.8375 29.7384 18.5746 29.6848 18.3088 29.6836C18.0431 29.6823 17.7797 29.7334 17.5337 29.8339C17.2878 29.9345 17.0641 30.0824 16.8754 30.2693M11.7876 32.3537C12.7307 32.3577 13.6655 32.1758 14.5384 31.8183C15.4117 31.4606 16.2058 30.9343 16.8754 30.2693M16.8754 30.2693C16.8755 30.2692 16.8753 30.2694 16.8754 30.2693Z" stroke="white" stroke-width="1.15555"/>
<path d="M31.7321 27.6954C32.4817 27.1291 32.5814 27.4455 33.214 28.0782C33.5304 28.3945 34.3956 28.9448 33.8294 29.41C32.6478 30.3749 31.5819 30.8082 30.0739 30.8082C26.6607 30.7922 24.247 28.2442 24.4406 24.8643C24.5229 23.3505 25.1223 21.9176 26.3053 20.9354C27.3872 20.0196 28.7349 19.621 30.1504 19.6542C30.8442 19.6521 31.5316 19.7876 32.1727 20.0528C32.6068 20.2096 33.0161 20.4286 33.3874 20.7029C34.1371 21.2807 33.7875 21.6186 33.204 22.2007C33.0711 22.3336 32.9382 22.4679 32.8212 22.6008C32.5222 22.8998 32.3214 23.1165 31.9228 22.8334C31.1572 22.3004 30.1894 22.0173 29.2751 22.2556C26.3284 23.0038 26.4613 28.2486 30.0753 28.266C30.6745 28.258 31.2552 28.0581 31.7321 27.6954ZM113.642 30.8731C113.524 30.8737 113.407 30.8509 113.297 30.806C113.188 30.761 113.089 30.6949 113.005 30.6114C112.921 30.5279 112.855 30.4285 112.81 30.3193C112.765 30.2101 112.742 30.0929 112.742 29.9747L112.793 18.3542C112.792 18.236 112.815 18.1188 112.86 18.0094C112.904 17.9001 112.971 17.8007 113.055 17.7171C113.138 17.6334 113.237 17.5672 113.347 17.522C113.456 17.477 113.573 17.4539 113.691 17.4543H114.658C114.776 17.4539 114.893 17.477 115.002 17.5222C115.112 17.5674 115.211 17.6338 115.295 17.7176C115.378 17.8014 115.444 17.901 115.489 18.0104C115.534 18.12 115.557 18.2373 115.556 18.3556L115.505 29.9762C115.506 30.0943 115.483 30.2114 115.438 30.3206C115.394 30.4299 115.327 30.5292 115.243 30.6127C115.16 30.6963 115.061 30.7624 114.951 30.8073C114.842 30.8523 114.725 30.8752 114.607 30.8746L113.642 30.8731ZM108.587 29.5255C107.538 30.5077 106.538 31.0234 105.056 31.0234C102.061 31.006 100.628 28.526 100.628 25.7454L100.645 21.0177C100.645 20.8996 100.668 20.7825 100.713 20.6734C100.758 20.5641 100.824 20.465 100.907 20.3816C100.991 20.2982 101.091 20.2322 101.2 20.1874C101.31 20.1427 101.427 20.1199 101.545 20.1207H102.511C102.629 20.1202 102.746 20.143 102.856 20.188C102.965 20.2329 103.065 20.2991 103.148 20.3826C103.231 20.4661 103.297 20.5654 103.343 20.6747C103.387 20.7839 103.41 20.901 103.41 21.0192L103.393 25.7469C103.393 27.2953 104.225 28.51 105.858 28.51C107.49 28.51 108.488 27.1451 108.504 25.6211V23.9326C108.491 23.867 108.486 23.8001 108.488 23.7333L108.504 21.0524C108.503 20.9342 108.526 20.8172 108.571 20.7079C108.617 20.5986 108.683 20.4993 108.766 20.4158C108.849 20.3323 108.949 20.2662 109.058 20.2212C109.167 20.1763 109.284 20.1534 109.402 20.154H110.356C110.474 20.1534 110.591 20.1763 110.7 20.2212C110.81 20.2662 110.909 20.3323 110.992 20.4158C111.076 20.4993 111.142 20.5986 111.187 20.7079C111.232 20.8172 111.255 20.9342 111.254 21.0524L111.223 29.9762C111.22 30.2123 111.124 30.4378 110.956 30.6033C110.787 30.7687 110.56 30.8607 110.324 30.8587H109.508C109.276 30.8515 109.056 30.7562 108.892 30.5922C108.728 30.4282 108.633 30.2079 108.626 29.9762L108.587 29.5255ZM97.0934 20.154H98.9577C99.0763 20.1556 99.1926 20.1807 99.3013 20.2278C99.4099 20.2748 99.5077 20.3428 99.5902 20.4279C99.6718 20.5131 99.7365 20.6137 99.7797 20.7238C99.822 20.8339 99.8428 20.9516 99.8405 21.0697V21.6851C99.8382 21.9223 99.7435 22.1492 99.5763 22.3173C99.4084 22.4853 99.1819 22.5809 98.9446 22.5835H97.0757L97.0425 29.9256C97.0433 30.0438 97.0202 30.161 96.9755 30.2703C96.9301 30.3796 96.8646 30.479 96.7806 30.5627C96.6974 30.6463 96.598 30.7127 96.4887 30.7577C96.3793 30.8029 96.2622 30.8259 96.1443 30.8255H95.179C95.0612 30.8258 94.9441 30.8029 94.8347 30.7577C94.7253 30.7127 94.6259 30.6464 94.5419 30.5627C94.4587 30.4792 94.3917 30.3798 94.347 30.2704C94.3016 30.1611 94.2792 30.0439 94.2792 29.9256L94.3124 19.7712C94.3124 17.5568 95.5781 15.8077 97.843 15.6083C97.9092 15.6083 97.9585 15.5924 98.0248 15.5924C98.158 15.5838 98.2913 15.5838 98.4246 15.5924H99.2913C99.4099 15.5941 99.5262 15.6191 99.6348 15.6661C99.7427 15.713 99.8413 15.7809 99.923 15.8659C100.005 15.9509 100.069 16.0512 100.112 16.1612C100.156 16.2713 100.176 16.3887 100.174 16.5068V17.073C100.173 17.3109 100.078 17.5387 99.9091 17.7071C99.7411 17.8755 99.5139 17.9709 99.2758 17.9728H98.5764C97.5102 17.9728 97.061 18.7875 97.0441 19.7871L97.0934 20.154ZM90.4012 20.1207H92.445C92.6807 20.123 92.9064 20.2189 93.0721 20.3873C93.2377 20.5558 93.3294 20.7831 93.3271 21.0192V21.6345C93.3247 21.8706 93.2292 22.0962 93.0605 22.2616C92.8926 22.4271 92.6653 22.519 92.4288 22.5171H90.3835L90.3681 27.0093C90.3681 27.8759 90.7841 28.3743 91.6492 28.3743H92.0652C92.3009 28.3769 92.5266 28.4731 92.6923 28.6418C92.8579 28.8105 92.9496 29.0379 92.9473 29.2742V29.8982C92.945 30.1341 92.8487 30.3595 92.6807 30.5248C92.512 30.6902 92.2848 30.7822 92.049 30.7807H91.2663C91.1215 30.7836 90.9767 30.7778 90.8326 30.7634C88.6186 30.6189 87.6364 29.1832 87.6364 27.018C87.6533 24.1045 87.6533 21.2084 87.6695 18.2949C87.671 18.1779 87.6949 18.0623 87.7403 17.9546C87.7866 17.8469 87.8528 17.7493 87.9368 17.6673C88.02 17.5854 88.1194 17.5206 88.228 17.4769C88.3366 17.4332 88.4522 17.4112 88.5693 17.4124H89.5184C89.7549 17.4147 89.9798 17.5106 90.1454 17.679C90.3111 17.8475 90.4027 18.0748 90.4012 18.3109V20.1207ZM60.7899 20.0038H62.8338C63.0699 20.006 63.2955 20.1019 63.461 20.2704C63.6264 20.4388 63.7183 20.6661 63.7163 20.9022V21.5204C63.7136 21.7564 63.6176 21.9818 63.4493 22.1471C63.2809 22.3125 63.0539 22.4045 62.8179 22.4029H60.7668V26.8966C60.7668 27.7633 61.1828 28.2616 62.048 28.2616H62.4655C62.5823 28.2627 62.6977 28.2868 62.8053 28.3326C62.9128 28.3784 63.0103 28.4449 63.0921 28.5284C63.1739 28.6118 63.2385 28.7105 63.2822 28.8189C63.3258 28.9273 63.3477 29.0432 63.3465 29.1601V29.7754C63.3442 30.0115 63.2484 30.237 63.0799 30.4025C62.9114 30.568 62.6843 30.6599 62.4481 30.658H61.8328C59.4177 30.642 58.0195 29.6093 58.0195 26.9024C58.0368 23.989 58.0368 21.0914 58.0527 18.178C58.0554 17.9417 58.1516 17.7162 58.3203 17.5508C58.4889 17.3853 58.7163 17.2935 58.9526 17.2954H59.9015C60.1377 17.2981 60.3631 17.3944 60.5283 17.5631C60.6935 17.7318 60.785 17.9591 60.7827 18.1953L60.7899 20.0038ZM48.7707 21.2691C49.7529 20.3533 50.8189 19.7712 52.1998 19.7712C55.1971 19.7871 56.7455 22.2267 56.7282 25.0478L56.7122 29.7754C56.7126 29.8937 56.6896 30.0109 56.6445 30.1202C56.5994 30.2296 56.5332 30.3289 56.4495 30.4125C56.3659 30.4962 56.2666 30.5624 56.1572 30.6075C56.0478 30.6526 55.9307 30.6756 55.8123 30.6753H54.8475C54.7292 30.6756 54.612 30.6526 54.5026 30.6075C54.3933 30.5624 54.294 30.4962 54.2103 30.4125C54.1267 30.3289 54.0604 30.2296 54.0153 30.1202C53.9702 30.0109 53.9472 29.8937 53.9476 29.7754L53.9649 25.081C53.9649 23.5325 53.1329 22.3177 51.5007 22.3177C49.8685 22.3177 48.8704 23.6669 48.8545 25.198L48.8371 29.7754C48.8349 30.0115 48.739 30.237 48.5705 30.4025C48.4021 30.568 48.1748 30.6599 47.9387 30.658H46.9897C46.7536 30.6557 46.528 30.5597 46.3625 30.3913C46.1971 30.2229 46.1052 29.9956 46.1072 29.7595C46.123 26.9125 46.123 24.0496 46.1404 21.2026V20.8198C46.1411 20.584 46.2354 20.3581 46.4024 20.1915C46.5695 20.025 46.7957 19.9315 47.0316 19.9315H47.8477C48.0796 19.9384 48.3001 20.0336 48.4641 20.1977C48.6282 20.3617 48.7233 20.5822 48.7303 20.814L48.7707 21.2691ZM78.4381 21.3847C79.4204 20.4703 80.485 19.8868 81.8671 19.8868C84.8646 19.9041 86.4115 22.3509 86.3953 25.1647L86.3783 29.8982C86.3791 30.0164 86.356 30.1335 86.3113 30.2429C86.2659 30.3522 86.1996 30.4516 86.1164 30.5352C86.0332 30.6189 85.9338 30.6852 85.8244 30.7303C85.715 30.7754 85.598 30.7984 85.4801 30.798H84.5148C84.3962 30.7984 84.2791 30.7754 84.1697 30.7303C84.0603 30.6852 83.9617 30.619 83.8777 30.5353C83.7938 30.4517 83.7275 30.3524 83.6828 30.243C83.6374 30.1337 83.6143 30.0164 83.615 29.8982L83.632 25.2038C83.632 23.6553 82.7992 22.4405 81.1683 22.4405C79.5375 22.4405 78.5375 23.7882 78.5206 25.3207L78.4975 29.8982C78.4944 30.1344 78.3981 30.36 78.2294 30.5254C78.0614 30.6909 77.8334 30.7826 77.5977 30.7807H76.6484C76.4125 30.7781 76.1874 30.682 76.0222 30.5136C75.857 30.3451 75.7654 30.1182 75.7673 29.8823L75.8006 20.9412C75.8009 20.8237 75.8245 20.7073 75.87 20.599C75.9155 20.4906 75.982 20.3923 76.0656 20.3098C76.1493 20.2272 76.2485 20.162 76.3574 20.1179C76.4663 20.0738 76.5829 20.0517 76.7004 20.0528H77.5168C77.7494 20.0605 77.9705 20.157 78.1339 20.3225C78.2979 20.4879 78.3919 20.7098 78.3973 20.9426L78.4381 21.3847ZM39.7069 19.6874C36.4598 19.67 34.1631 22.0173 34.1457 25.2471C34.1299 28.51 36.3933 30.8255 39.6736 30.8414C42.954 30.8573 45.2506 28.5606 45.2665 25.2759C45.2838 22.0678 42.9366 19.7033 39.7069 19.6874ZM66.6601 26.3636C66.8926 27.8615 68.3255 28.4768 69.7237 28.4942C70.4247 28.4881 71.1166 28.335 71.7547 28.045C71.8573 28.0031 71.9571 27.9549 72.0536 27.9005C72.3873 27.7171 72.6863 27.6015 72.9868 27.9005C73.1529 28.0666 73.3031 28.2342 73.4692 28.3829C73.6261 28.5327 73.771 28.6945 73.9025 28.8669C74.3517 29.4316 74.0354 29.566 73.5197 29.9155C72.4206 30.6478 70.9891 31.0133 69.6732 31.0133C66.1445 30.9974 63.8131 28.8466 63.8131 25.2875C63.8304 21.9234 66.1603 19.6932 69.523 19.7091C72.9535 19.7264 74.9006 21.7414 74.9512 25.1705C74.9671 26.1022 75.0003 26.4026 74.0354 26.4026L66.6601 26.3636ZM39.7069 22.2007C41.3882 22.2007 42.5033 23.6669 42.5033 25.2817C42.5033 26.963 41.4546 28.315 39.6895 28.315C37.9244 28.315 36.8931 26.95 36.8931 25.2687C36.8931 23.5874 37.9591 22.2007 39.7069 22.2007ZM66.7338 24.0496L72.2616 24.0655C72.0609 22.6832 70.9126 22.1343 69.5981 22.1343C68.2837 22.1343 67.1425 22.7511 66.7338 24.0496Z" fill="white"/>
</g>
</g>
<defs>
<clipPath id="clip0_984_325">
<rect width="115.555" height="50.074" fill="white"/>
</clipPath>
</defs>
</svg>
