<svg width="40" height="40" viewBox="0 0 40 40" fill="none" xmlns="http://www.w3.org/2000/svg">
<g clip-path="url(#clip0_791_26)">
<path d="M6.66667 35C5.75 35 4.96528 34.6736 4.3125 34.0208C3.65972 33.3681 3.33334 32.5833 3.33334 31.6667V8.33333C3.33334 7.41667 3.65972 6.63194 4.3125 5.97917C4.96528 5.32639 5.75 5 6.66667 5H16.6667C17.5833 5 18.3681 5.32639 19.0208 5.97917C19.6736 6.63194 20 7.41667 20 8.33333V11.6667H33.3333C34.25 11.6667 35.0347 11.9931 35.6875 12.6458C36.3403 13.2986 36.6667 14.0833 36.6667 15V23.3333C36.6667 23.8056 36.5069 24.2014 36.1875 24.5208C35.8681 24.8403 35.4722 25 35 25C34.5278 25 34.1319 24.8403 33.8125 24.5208C33.4931 24.2014 33.3333 23.8056 33.3333 23.3333V15H20V18.3333H23.3333V21.6667H20V25H23.3333V28.3333H20V31.6667H25C25.4722 31.6667 25.8681 31.8264 26.1875 32.1458C26.5069 32.4653 26.6667 32.8611 26.6667 33.3333C26.6667 33.8056 26.5069 34.2014 26.1875 34.5208C25.8681 34.8403 25.4722 35 25 35H6.66667ZM6.66667 31.6667H10V28.3333H6.66667V31.6667ZM6.66667 25H10V21.6667H6.66667V25ZM6.66667 18.3333H10V15H6.66667V18.3333ZM6.66667 11.6667H10V8.33333H6.66667V11.6667ZM13.3333 31.6667H16.6667V28.3333H13.3333V31.6667ZM13.3333 25H16.6667V21.6667H13.3333V25ZM13.3333 18.3333H16.6667V15H13.3333V18.3333ZM13.3333 11.6667H16.6667V8.33333H13.3333V11.6667ZM35 38.3333C34.5278 38.3333 34.1319 38.1736 33.8125 37.8542C33.4931 37.5347 33.3333 37.1389 33.3333 36.6667V35H31.6667C31.1944 35 30.7986 34.8403 30.4792 34.5208C30.1597 34.2014 30 33.8056 30 33.3333C30 32.8611 30.1597 32.4653 30.4792 32.1458C30.7986 31.8264 31.1944 31.6667 31.6667 31.6667H33.3333V30C33.3333 29.5278 33.4931 29.1319 33.8125 28.8125C34.1319 28.4931 34.5278 28.3333 35 28.3333C35.4722 28.3333 35.8681 28.4931 36.1875 28.8125C36.5069 29.1319 36.6667 29.5278 36.6667 30V31.6667H38.3333C38.8056 31.6667 39.2014 31.8264 39.5208 32.1458C39.8403 32.4653 40 32.8611 40 33.3333C40 33.8056 39.8403 34.2014 39.5208 34.5208C39.2014 34.8403 38.8056 35 38.3333 35H36.6667V36.6667C36.6667 37.1389 36.5069 37.5347 36.1875 37.8542C35.8681 38.1736 35.4722 38.3333 35 38.3333ZM26.6667 21.6667V18.3333H30V21.6667H26.6667ZM26.6667 28.3333V25H30V28.3333H26.6667Z" fill="#4285F4"/>
</g>
<defs>
<clipPath id="clip0_791_26">
<rect width="40" height="40" fill="white"/>
</clipPath>
</defs>
</svg>
