<svg width="71" height="51" viewBox="0 0 71 51" fill="none" xmlns="http://www.w3.org/2000/svg">
<g clip-path="url(#clip0_984_240)">
<path d="M2.85676 12.9997C2.85547 13.037 2.85547 13.0813 2.85547 13.1701V13.5005C2.85547 13.5892 2.85547 13.6336 2.85676 13.6709C2.89855 14.7831 3.8436 15.6754 5.0214 15.7153C5.06126 15.7166 5.10819 15.7166 5.2027 15.7166C5.29656 15.7166 5.34349 15.7166 5.3827 15.7153C6.56115 15.6754 7.50685 14.7831 7.54799 13.6709C7.54992 13.6336 7.54992 13.5892 7.54992 13.5005V13.1701C7.54992 13.0813 7.54992 13.037 7.54799 12.9997C7.50685 11.8875 6.56115 10.9945 5.38335 10.9552C5.34349 10.954 5.29656 10.954 5.2027 10.954C5.10819 10.954 5.06126 10.954 5.0214 10.9552C3.8436 10.9945 2.89855 11.8875 2.85676 12.9997ZM33.6072 20.8867V30.0038C33.6072 31.5892 34.2193 32.3033 36.1519 32.3033C36.9613 32.3033 37.7572 32.0784 38.2335 31.9086V35.5828C37.4235 35.8548 36.1859 35.9911 35.1721 35.9911C31.1103 35.9911 29.1848 33.9563 29.1848 30.4389V12.0424H33.6072V17.8934H38.2335V20.8874L33.6072 20.8867Z" fill="white"/>
<path fill-rule="evenodd" clip-rule="evenodd" d="M39.7324 26.4275C39.7324 21.0272 43.1379 17.3485 48.5877 17.3485C54.4105 17.3485 57.2965 21.5968 56.9917 27.7571H44.2758C44.506 30.9175 45.9891 32.5203 48.616 32.5203C50.8366 32.5203 52.0151 31.4492 52.5229 29.9346H56.8432C56.0036 33.648 53.063 35.99 48.5884 35.99C43.0633 35.99 39.7324 32.346 39.7324 26.8763V26.4275ZM48.5543 20.8877C46.1306 20.8877 44.6821 22.1851 44.2758 24.7643L52.5499 24.6962C52.3121 22.2898 51.0121 20.8877 48.5543 20.8877Z" fill="white"/>
<path d="M20.3085 17.3485C17.4644 17.3485 15.7092 19.029 14.831 20.682L14.6272 17.8924H10.4098V35.4455H14.8317V25.5802C14.8317 22.6685 16.3759 20.8864 18.7097 20.8864C21.0434 20.8864 21.9075 22.4306 21.9075 25.1038V35.4455H26.3293V24.1517C26.3364 20.2332 24.6352 17.3485 20.3085 17.3485ZM63.8849 20.682C65.0074 18.4845 67.2999 17.3485 69.0216 17.3485C69.3277 17.3485 69.8105 17.389 70.076 17.4501V20.8864C69.6487 20.843 69.2196 20.8203 68.7902 20.8183C65.6471 20.8183 63.8849 22.7097 63.8849 25.921V35.4455H59.4618V17.8924H63.7479L63.8849 20.682ZM0 17.8924V20.8826H2.99205V35.4455H7.41584V17.8924H0Z" fill="white"/>
</g>
<defs>
<clipPath id="clip0_984_240">
<rect width="70.4168" height="50.0742" fill="white" transform="translate(0 0.000854492)"/>
</clipPath>
</defs>
</svg>
