<svg width="87" height="87" viewBox="0 0 87 87" fill="none" xmlns="http://www.w3.org/2000/svg">
<path d="M38.6063 57.0938L56.2781 45.7656C57.124 45.2219 57.5469 44.4667 57.5469 43.5C57.5469 42.5333 57.124 41.7781 56.2781 41.2344L38.6063 29.9062C37.7 29.3021 36.7786 29.2568 35.8422 29.7703C34.9057 30.2839 34.4375 31.0844 34.4375 32.1719V54.8281C34.4375 55.9156 34.9057 56.7161 35.8422 57.2297C36.7786 57.7432 37.7 57.6979 38.6063 57.0938ZM43.5 79.75C38.4854 79.75 33.7729 78.7984 29.3625 76.8953C24.9521 74.9922 21.1156 72.4094 17.8531 69.1469C14.5906 65.8844 12.0078 62.0479 10.1047 57.6375C8.20156 53.2271 7.25 48.5146 7.25 43.5C7.25 38.4854 8.20156 33.7729 10.1047 29.3625C12.0078 24.9521 14.5906 21.1156 17.8531 17.8531C21.1156 14.5906 24.9521 12.0078 29.3625 10.1047C33.7729 8.20156 38.4854 7.25 43.5 7.25C48.5146 7.25 53.2271 8.20156 57.6375 10.1047C62.0479 12.0078 65.8844 14.5906 69.1469 17.8531C72.4094 21.1156 74.9922 24.9521 76.8953 29.3625C78.7984 33.7729 79.75 38.4854 79.75 43.5C79.75 48.5146 78.7984 53.2271 76.8953 57.6375C74.9922 62.0479 72.4094 65.8844 69.1469 69.1469C65.8844 72.4094 62.0479 74.9922 57.6375 76.8953C53.2271 78.7984 48.5146 79.75 43.5 79.75ZM43.5 72.5C51.5958 72.5 58.4531 69.6906 64.0719 64.0719C69.6906 58.4531 72.5 51.5958 72.5 43.5C72.5 35.4042 69.6906 28.5469 64.0719 22.9281C58.4531 17.3094 51.5958 14.5 43.5 14.5C35.4042 14.5 28.5469 17.3094 22.9281 22.9281C17.3094 28.5469 14.5 35.4042 14.5 43.5C14.5 51.5958 17.3094 58.4531 22.9281 64.0719C28.5469 69.6906 35.4042 72.5 43.5 72.5Z" fill="white"/>
</svg>
