<svg width="96" height="25" viewBox="0 0 96 25" fill="none" xmlns="http://www.w3.org/2000/svg">
<path d="M89.8194 1.83594L95.1813 12.4962L83.9023 23.1723L89.8194 1.83594Z" fill="#018C45"/>
<path d="M86.0909 1.83594L91.4528 12.4962L80.1738 23.1723L86.0909 1.83594Z" fill="#F47920"/>
<path d="M8.72491 8.2966H11.3265C12.2466 8.2966 12.9129 8.16969 13.3253 7.90001C13.7378 7.63033 14.055 7.17029 14.2295 6.50402C14.4199 5.8219 14.3723 5.36186 14.1026 5.09218C13.8329 4.8225 13.1825 4.69559 12.1673 4.69559H9.70845L8.72491 8.2966ZM0 19.29L5.36185 0H13.9281C16.6091 0 18.3858 0.428316 19.3058 1.30081C20.2101 2.1733 20.3846 3.58515 19.8452 5.56808C19.5121 6.74198 19.0203 7.72551 18.3223 8.50282C17.6402 9.28013 16.736 9.89881 15.6414 10.343C16.5773 10.5651 17.1801 11.0093 17.4498 11.6914C17.7195 12.3576 17.6878 13.3412 17.3546 14.6261L16.7042 17.3229V17.4022C16.5139 18.1637 16.5773 18.5603 16.8787 18.592L16.6884 19.3059H10.8982C10.9141 18.8458 10.9617 18.4492 10.9934 18.1002C11.041 17.7512 11.0886 17.4816 11.1362 17.2912L11.6755 15.3717C11.9452 14.3723 11.9611 13.6743 11.7072 13.2619C11.4534 12.8494 10.8823 12.6432 9.97812 12.6432H7.55101L5.66326 19.29H0ZM35.7087 5.06045L31.7587 19.29H26.9679L27.5549 17.2119C26.7141 18.0368 25.8416 18.6713 24.9691 19.0679C24.1125 19.4803 23.1924 19.6866 22.2406 19.6866C21.4474 19.6866 20.7653 19.5438 20.2259 19.2583C19.6707 18.9727 19.2583 18.5444 18.9727 17.9733C18.7189 17.4816 18.6237 16.8629 18.6554 16.1173C18.703 15.3876 18.9569 14.1661 19.4328 12.4528L21.4791 5.06045H26.73L24.6836 12.4052C24.3822 13.484 24.3187 14.2454 24.4615 14.642C24.6201 15.0544 25.0167 15.2765 25.6671 15.2765C26.3334 15.2765 26.8886 15.0386 27.3486 14.5468C27.8087 14.055 28.1735 13.3412 28.4432 12.3735L30.4737 5.04459H35.7087V5.06045ZM42.4824 8.67732H44.3384C45.5282 8.67732 46.3689 8.53455 46.8607 8.24901C47.3366 7.96346 47.6697 7.43997 47.876 6.71025C48.0822 5.96467 48.0346 5.45704 47.7173 5.17149C47.4159 4.88595 46.6545 4.74318 45.4171 4.74318H43.577L42.4824 8.67732ZM33.8051 19.29L39.1511 0H46.5117C48.1298 0 49.3989 0.0951823 50.2872 0.301407C51.1756 0.507633 51.8894 0.824902 52.3971 1.28494C53.0475 1.88775 53.444 2.63334 53.6185 3.53756C53.7772 4.42591 53.682 5.4729 53.3489 6.71025C52.7461 8.86768 51.6991 10.5175 50.2079 11.6755C48.7009 12.8177 46.8448 13.3888 44.6398 13.3888H41.1974L39.5476 19.29H33.8051ZM60.7888 12.9287C60.2336 13.1508 59.5039 13.3729 58.6155 13.595C57.2037 13.9757 56.4105 14.4834 56.236 15.102C56.1091 15.4986 56.1726 15.8159 56.3629 16.0538C56.5533 16.2759 56.8864 16.387 57.3623 16.387C58.2348 16.387 58.9328 16.1649 59.4563 15.7366C59.9798 15.2924 60.3764 14.6103 60.6461 13.6585C60.6937 13.4522 60.7412 13.3095 60.7571 13.1984L60.7888 12.9287ZM59.5198 19.29L59.5673 17.9416C58.7266 18.5761 57.87 19.052 56.9975 19.3534C56.1408 19.6548 55.2208 19.8135 54.2531 19.8135C52.7619 19.8135 51.7308 19.4169 51.128 18.6237C50.541 17.8464 50.4459 16.7201 50.8424 15.2765C51.2232 13.8647 51.9212 12.8177 52.9047 12.1514C53.8882 11.4852 55.538 10.9934 57.8541 10.692C58.1396 10.6444 58.5362 10.6127 59.028 10.5492C60.7412 10.3588 61.6931 9.89881 61.8993 9.15323C62.0103 8.74078 61.9469 8.43937 61.6931 8.26487C61.4551 8.07451 60.9951 7.97933 60.3447 7.97933C59.8053 7.97933 59.3611 8.09037 58.9963 8.32832C58.6314 8.56628 58.3617 8.91527 58.1872 9.40704H53.0792C53.5392 7.80483 54.491 6.59921 55.9029 5.79017C57.3147 4.96527 59.1708 4.56868 61.4868 4.56868C62.5655 4.56868 63.5491 4.66386 64.4057 4.88595C65.2623 5.09218 65.8969 5.39358 66.2935 5.75844C66.8011 6.21848 67.0866 6.72611 67.1818 7.2972C67.277 7.86828 67.1659 8.69318 66.8804 9.75604L64.6754 17.6878C64.6119 17.9416 64.5961 18.1795 64.6278 18.3858C64.6754 18.592 64.7547 18.7665 64.9133 18.8775L64.8023 19.2741H59.5198V19.29ZM64.834 24.9057L65.9921 20.686H67.4991C68.0067 20.686 68.3874 20.5908 68.673 20.4004C68.9585 20.2101 69.1489 19.8928 69.2599 19.4645C69.3234 19.2741 69.3551 19.0838 69.371 18.8617C69.3868 18.6237 69.3868 18.3699 69.371 18.0844L68.5619 5.04459H73.8762L73.7969 13.6743L78.429 5.04459H83.3626L75.1611 19.2107C74.2252 20.797 73.5589 21.8757 73.1306 22.4785C72.7023 23.0655 72.3057 23.5255 71.9091 23.8269C71.4015 24.2553 70.8463 24.5567 70.2276 24.7312C69.6089 24.9057 68.6888 25.0008 67.4356 25.0008C67.0708 25.0008 66.6583 25.0008 66.2141 24.9691C65.7858 24.9691 65.3099 24.9374 64.834 24.9057Z" fill="white"/>
</svg>
