<svg width="32" height="32" viewBox="0 0 32 32" fill="none" xmlns="http://www.w3.org/2000/svg">
<path d="M13.3333 3.9987C12.9556 3.9987 12.6389 3.87092 12.3833 3.61536C12.1278 3.35981 12 3.04314 12 2.66536C12 2.28759 12.1278 1.97092 12.3833 1.71536C12.6389 1.45981 12.9556 1.33203 13.3333 1.33203H18.6667C19.0444 1.33203 19.3611 1.45981 19.6167 1.71536C19.8722 1.97092 20 2.28759 20 2.66536C20 3.04314 19.8722 3.35981 19.6167 3.61536C19.3611 3.87092 19.0444 3.9987 18.6667 3.9987H13.3333ZM16 18.6654C16.3778 18.6654 16.6944 18.5376 16.95 18.282C17.2056 18.0265 17.3333 17.7098 17.3333 17.332V11.9987C17.3333 11.6209 17.2056 11.3043 16.95 11.0487C16.6944 10.7931 16.3778 10.6654 16 10.6654C15.6222 10.6654 15.3056 10.7931 15.05 11.0487C14.7944 11.3043 14.6667 11.6209 14.6667 11.9987V17.332C14.6667 17.7098 14.7944 18.0265 15.05 18.282C15.3056 18.5376 15.6222 18.6654 16 18.6654ZM16 29.332C14.3556 29.332 12.8056 29.0154 11.35 28.382C9.89444 27.7487 8.62222 26.8876 7.53333 25.7987C6.44444 24.7098 5.58333 23.4376 4.95 21.982C4.31667 20.5265 4 18.9765 4 17.332C4 15.6876 4.31667 14.1376 4.95 12.682C5.58333 11.2265 6.44444 9.95425 7.53333 8.86537C8.62222 7.77648 9.89444 6.91536 11.35 6.28203C12.8056 5.6487 14.3556 5.33203 16 5.33203C17.3778 5.33203 18.7 5.55425 19.9667 5.9987C21.2333 6.44314 22.4222 7.08759 23.5333 7.93203L24.4667 6.9987C24.7111 6.75425 25.0222 6.63203 25.4 6.63203C25.7778 6.63203 26.0889 6.75425 26.3333 6.9987C26.5778 7.24314 26.7 7.55425 26.7 7.93203C26.7 8.30981 26.5778 8.62092 26.3333 8.86537L25.4 9.7987C26.2444 10.9098 26.8889 12.0987 27.3333 13.3654C27.7778 14.632 28 15.9543 28 17.332C28 18.9765 27.6833 20.5265 27.05 21.982C26.4167 23.4376 25.5556 24.7098 24.4667 25.7987C23.3778 26.8876 22.1056 27.7487 20.65 28.382C19.1944 29.0154 17.6444 29.332 16 29.332ZM16 26.6654C18.5778 26.6654 20.7778 25.7543 22.6 23.932C24.4222 22.1098 25.3333 19.9098 25.3333 17.332C25.3333 14.7543 24.4222 12.5543 22.6 10.732C20.7778 8.90981 18.5778 7.9987 16 7.9987C13.4222 7.9987 11.2222 8.90981 9.4 10.732C7.57778 12.5543 6.66667 14.7543 6.66667 17.332C6.66667 19.9098 7.57778 22.1098 9.4 23.932C11.2222 25.7543 13.4222 26.6654 16 26.6654Z" fill="#15365F"/>
</svg>
