<svg width="22" height="22" viewBox="0 0 22 22" fill="none" xmlns="http://www.w3.org/2000/svg">
<path fill-rule="evenodd" clip-rule="evenodd" d="M11 21.3125C16.3158 21.3125 20.625 17.0033 20.625 11.6875C20.625 6.37176 16.3158 2.0625 11 2.0625C5.68426 2.0625 1.375 6.37176 1.375 11.6875C1.375 13.4137 1.82944 15.0338 2.6252 16.4347L1.375 21.3125L6.40397 20.1464C7.76971 20.89 9.33549 21.3125 11 21.3125ZM11 19.8318C15.498 19.8318 19.1443 16.1855 19.1443 11.6875C19.1443 7.1896 15.498 3.54327 11 3.54327C6.50207 3.54327 2.85577 7.1896 2.85577 11.6875C2.85577 13.4242 3.39934 15.0339 4.32564 16.3558L3.59615 19.0913L6.37995 18.3954C7.69271 19.3013 9.28441 19.8318 11 19.8318Z" fill="#BFC8D0"/>
<path d="M19.25 11C19.25 15.5563 15.5563 19.25 11 19.25C9.26214 19.25 7.64974 18.7126 6.31995 17.795L3.5 18.5L4.23896 15.7289C3.30063 14.3899 2.75 12.7592 2.75 11C2.75 6.44365 6.44365 2.75 11 2.75C15.5563 2.75 19.25 6.44365 19.25 11Z" fill="url(#paint0_linear_854_17)"/>
<path fill-rule="evenodd" clip-rule="evenodd" d="M11 20.625C16.3158 20.625 20.625 16.3158 20.625 11C20.625 5.68426 16.3158 1.375 11 1.375C5.68426 1.375 1.375 5.68426 1.375 11C1.375 12.7262 1.82944 14.3463 2.6252 15.7472L1.375 20.625L6.40397 19.4589C7.76971 20.2025 9.33549 20.625 11 20.625ZM11 19.1443C15.498 19.1443 19.1443 15.498 19.1443 11C19.1443 6.50207 15.498 2.85577 11 2.85577C6.50207 2.85577 2.85577 6.50207 2.85577 11C2.85577 12.7367 3.39934 14.3464 4.32564 15.6683L3.59615 18.4038L6.37995 17.7079C7.69271 18.6138 9.28441 19.1443 11 19.1443Z" fill="white"/>
<path d="M8.59375 6.5312C8.36495 6.07156 8.01384 6.11225 7.65923 6.11225C7.02543 6.11225 6.03711 6.87144 6.03711 8.28441C6.03711 9.44236 6.54737 10.7099 8.26677 12.6061C9.92612 14.4361 12.1065 15.3827 13.9165 15.3505C15.7266 15.3183 16.099 13.7606 16.099 13.2346C16.099 13.0015 15.9543 12.8852 15.8546 12.8535C15.2378 12.5575 14.1001 12.0059 13.8413 11.9023C13.5825 11.7987 13.4473 11.9389 13.3633 12.0151C13.1286 12.2388 12.6633 12.8981 12.5039 13.0464C12.3446 13.1947 12.1071 13.1196 12.0082 13.0636C11.6445 12.9176 10.6582 12.4789 9.87216 11.7168C8.89989 10.7744 8.84283 10.4501 8.65968 10.1615C8.51317 9.93056 8.6207 9.78893 8.67432 9.72699C8.88381 9.48533 9.17304 9.11216 9.30277 8.92674C9.43243 8.74125 9.32951 8.45972 9.26771 8.28441C9.00199 7.53022 8.77683 6.89889 8.59375 6.5312Z" fill="white"/>
<defs>
<linearGradient id="paint0_linear_854_17" x1="18.2187" y1="4.8125" x2="2.75" y2="19.25" gradientUnits="userSpaceOnUse">
<stop stop-color="#5BD066"/>
<stop offset="1" stop-color="#27B43E"/>
</linearGradient>
</defs>
</svg>
