<svg width="44" height="44" viewBox="0 0 44 44" fill="none" xmlns="http://www.w3.org/2000/svg">
<path d="M36.667 12.832H7.33366C5.30861 12.832 3.66699 14.4737 3.66699 16.4987V34.832C3.66699 36.8571 5.30861 38.4987 7.33366 38.4987H36.667C38.692 38.4987 40.3337 36.8571 40.3337 34.832V16.4987C40.3337 14.4737 38.692 12.832 36.667 12.832Z" stroke="#F26522" stroke-width="4" stroke-linecap="round" stroke-linejoin="round"/>
<path d="M29.3337 38.5V9.16667C29.3337 8.19421 28.9474 7.26158 28.2597 6.57394C27.5721 5.88631 26.6395 5.5 25.667 5.5H18.3337C17.3612 5.5 16.4286 5.88631 15.7409 6.57394C15.0533 7.26158 14.667 8.19421 14.667 9.16667V38.5" stroke="#F26522" stroke-width="4" stroke-linecap="round" stroke-linejoin="round"/>
</svg>
