<svg width="134" height="51" viewBox="0 0 134 51" fill="none" xmlns="http://www.w3.org/2000/svg">
<g clip-path="url(#clip0_984_261)">
<mask id="mask0_984_261" style="mask-type:luminance" maskUnits="userSpaceOnUse" x="-1" y="13" width="134" height="30">
<path d="M132.493 13.1016H-0.00390625V42.373H132.493V13.1016Z" fill="white"/>
</mask>
<g mask="url(#mask0_984_261)">
<path d="M42.0006 29.1318C41.8843 28.9573 41.7099 28.841 41.4966 28.8216C41.2834 28.8022 41.0702 28.8797 40.9151 29.0349C39.5388 30.1592 37.8329 30.7989 36.0494 30.7989C32.2112 30.7989 29.4198 27.833 29.4198 23.7427C29.4198 19.6524 32.1143 16.9579 35.9719 16.9579C37.6003 16.9579 39.1898 17.4619 40.508 18.3925C40.7988 18.6638 41.264 18.625 41.5355 18.3343C41.5548 18.3149 41.5742 18.2761 41.5936 18.2567L41.8068 17.9465C42.0782 17.617 42.0201 17.1324 41.6711 16.861C40.0234 15.6204 37.988 14.9806 35.9331 15.0388C30.9512 15.0388 27.3262 18.722 27.3262 23.7815C27.3262 28.9767 30.9705 32.7374 36.0107 32.7374C38.2594 32.7374 40.4305 31.9426 42.1558 30.4887C42.4659 30.2173 42.5241 29.7521 42.2527 29.4419C42.2333 29.4226 42.2333 29.4226 42.2139 29.4031L42.0006 29.1318Z" fill="white"/>
<path d="M47.176 30.6842C46.7495 30.6261 46.1098 30.5292 46.1098 29.1335V16.1067C46.1486 15.6996 45.8384 15.3507 45.4313 15.3119C45.3926 15.3119 45.3538 15.3119 45.315 15.3119H44.8691C44.4814 15.2731 44.1325 15.5832 44.0938 15.971C44.0938 16.0098 44.0938 16.0679 44.0938 16.1067V29.4242C44.0938 32.1381 45.9353 32.5452 47.0209 32.5452C47.428 32.6034 47.7769 32.3126 47.8351 31.9055C47.8351 31.8473 47.8351 31.8086 47.8351 31.7504V31.4015C47.8738 31.0332 47.5831 30.723 47.2341 30.6842C47.2148 30.6842 47.1954 30.6842 47.176 30.6842Z" fill="white"/>
<path d="M50.4392 20.0814H49.9934C49.5863 20.0427 49.2374 20.3529 49.1986 20.7599C49.1986 20.7987 49.1986 20.8374 49.1986 20.8762V31.6543C49.1598 32.0614 49.47 32.4103 49.8771 32.4491C49.9158 32.4491 49.9546 32.4491 49.9934 32.4491H50.4392C50.8269 32.4879 51.1759 32.1777 51.2146 31.79C51.2146 31.7512 51.2146 31.6931 51.2146 31.6543V20.8762C51.2534 20.4885 50.982 20.1202 50.5943 20.0814C50.5361 20.0814 50.4974 20.0814 50.4392 20.0814Z" fill="white"/>
<path d="M50.5129 15.3124H49.912C49.5242 15.2736 49.1753 15.5838 49.1365 15.9715C49.1365 16.0102 49.1365 16.0684 49.1365 16.1072V16.9601C49.0978 17.3478 49.3691 17.6967 49.7375 17.7355C49.7956 17.7355 49.8538 17.7355 49.8925 17.7355H50.4935C50.8811 17.7743 51.2107 17.5029 51.2688 17.1152C51.2688 17.057 51.2688 17.0183 51.2688 16.9601V16.0878C51.3077 15.7001 51.0169 15.3511 50.6292 15.293C50.6098 15.3124 50.5516 15.3124 50.5129 15.3124Z" fill="white"/>
<path d="M64.022 29.8691C63.9251 29.6753 63.7313 29.5396 63.5374 29.5008C63.3242 29.462 63.111 29.5202 62.9365 29.6753C62.0254 30.4507 60.8816 30.8965 59.6798 30.8965C57.2373 30.9547 55.2212 29.0162 55.1631 26.593C55.1631 26.4767 55.1631 26.3798 55.1631 26.2635C55.0468 23.821 56.9077 21.7468 59.3502 21.6304C59.4472 21.6304 59.5441 21.6304 59.641 21.6304C60.7072 21.6499 61.7346 22.0182 62.5681 22.6967C62.7426 22.8129 62.9365 22.8905 63.1497 22.8711C63.3629 22.8518 63.5568 22.716 63.6537 22.5222L63.8088 22.2702C63.9638 22.0957 64.022 21.8825 64.0027 21.6693C63.9638 21.4754 63.8669 21.3009 63.7119 21.1846C62.5488 20.2736 61.1143 19.7889 59.6217 19.8083C56.1517 19.692 53.2634 22.4059 53.1276 25.8564C53.1276 25.9921 53.1276 26.1472 53.1276 26.2829C53.0113 29.7335 55.7252 32.6412 59.1757 32.7575C59.3309 32.7575 59.4665 32.7575 59.6217 32.7575C61.2306 32.7575 62.7814 32.2147 64.022 31.1873C64.3709 30.9353 64.4291 30.47 64.1965 30.1212L64.022 29.8691Z" fill="white"/>
<path d="M71.1213 25.5278L74.6688 21.108C74.8627 20.9335 74.9208 20.6428 74.8239 20.4102C74.6882 20.1776 74.4362 20.0418 74.1648 20.0806H73.5639C73.2149 20.0806 72.9048 20.2357 72.6915 20.5071L69.4348 24.6555H67.7871V16.1067C67.8259 15.6996 67.5157 15.3507 67.1087 15.3119C67.0698 15.3119 67.0311 15.3119 66.9924 15.3119H66.5465C66.1587 15.2731 65.8099 15.5832 65.771 15.971C65.771 16.0098 65.771 16.0679 65.771 16.1067V31.6535C65.7323 32.0412 66.0231 32.3901 66.4108 32.4483C66.4495 32.4483 66.5077 32.4483 66.5465 32.4483H66.9924C67.3994 32.487 67.7483 32.1963 67.8065 31.7892C67.8065 31.7504 67.8065 31.6922 67.8065 31.6535V26.4777H69.4542L73.1374 31.9636C73.2925 32.2932 73.6414 32.487 73.9903 32.4676H74.6106C74.882 32.5065 75.1341 32.3901 75.2698 32.1575C75.386 31.9249 75.3473 31.6535 75.1728 31.4403L71.1213 25.5278Z" fill="white"/>
<path d="M88.1006 16.4169V16.1067C88.1398 15.6996 87.8294 15.3507 87.4227 15.3119C87.3834 15.3119 87.3449 15.3119 87.3064 15.3119H74.8415C74.4344 15.2731 74.0855 15.5832 74.0467 15.9903C74.0467 16.0291 74.0467 16.0679 74.0467 16.1067V16.4169C74.0273 16.8239 74.3569 17.1728 74.7446 17.1728C74.7639 17.1728 74.8028 17.1728 74.8221 17.1728H80.037V31.6535C79.9978 32.0606 80.3082 32.4095 80.7149 32.4483C80.7542 32.4483 80.7927 32.4483 80.8312 32.4483H81.3157C81.704 32.4677 82.0529 32.1769 82.0722 31.7892C82.0722 31.7504 82.0722 31.7117 82.0722 31.6729V17.1728H87.3064C87.7131 17.1922 88.062 16.8627 88.062 16.4556C88.1006 16.4556 88.1006 16.4362 88.1006 16.4169Z" fill="white"/>
<path d="M92.6356 20.0039C91.085 20.062 89.6892 20.9925 89.0106 22.3882V20.8568C89.0499 20.4691 88.7587 20.1008 88.352 20.0621C88.3127 20.0621 88.2742 20.0621 88.2357 20.0621H87.8089C87.4014 20.0232 87.0525 20.3334 87.014 20.7405C87.014 20.7793 87.014 20.818 87.014 20.8568V31.6349C86.9755 32.042 87.2851 32.3909 87.6926 32.4297C87.7311 32.4297 87.7704 32.4297 87.8089 32.4297H88.2549C88.6424 32.4685 88.9913 32.1583 89.0299 31.7706C89.0299 31.7318 89.0299 31.6737 89.0299 31.6349V27.1763C89.0299 24.6563 90.2708 21.9811 92.5779 21.9811C93.0038 22.0199 93.3921 21.7291 93.4306 21.3026C93.4306 21.2639 93.4306 21.2251 93.4306 21.2057V20.7793C93.4691 20.3916 93.1594 20.0427 92.7712 20.0039C92.752 20.0039 92.6942 20.0039 92.6356 20.0039Z" fill="white"/>
<path d="M98.9408 19.7891C97.5643 19.7891 96.2078 20.1573 95.0253 20.8746C94.6764 21.0685 94.5401 21.5143 94.7342 21.8633C94.7534 21.8827 94.7727 21.9214 94.7927 21.9408L94.9475 22.1928C95.1609 22.5611 95.6262 22.6775 95.9751 22.4642C95.9944 22.4642 95.9944 22.4448 96.0136 22.4448C96.8664 21.9214 97.8362 21.65 98.8245 21.6306C100.686 21.6306 101.578 22.5805 101.578 24.5384V24.7322H101.073C96.0914 24.7322 93.5518 26.1861 93.5518 29.0551C93.5518 31.4782 95.684 32.7577 97.7969 32.7577C99.0378 32.7577 100.22 32.2537 101.073 31.3426C101.286 31.1293 101.461 30.8773 101.635 30.6253C101.635 30.6253 101.635 30.6834 101.635 30.7028V31.6527C101.597 32.0404 101.868 32.3893 102.275 32.4475C102.333 32.4475 102.372 32.4475 102.43 32.4475H102.818C103.205 32.4669 103.554 32.1761 103.574 31.7884C103.574 31.7496 103.574 31.7109 103.574 31.6721V24.5966C103.593 21.495 101.946 19.7891 98.9408 19.7891ZM98.1073 30.9936C96.4011 30.9936 95.6262 29.9081 95.6262 28.9C95.6262 26.6126 98.5533 26.3218 101.112 26.3218H101.597V26.6901C101.597 28.7644 100.259 30.9936 98.1073 30.9936Z" fill="white"/>
<path d="M114.657 20.0805H114.153C113.766 20.0612 113.417 20.3132 113.339 20.6815L110.179 28.9977C110.082 29.2691 109.986 29.5599 109.908 29.8313C109.83 29.5599 109.753 29.2691 109.656 28.9977L106.497 20.7009C106.399 20.3132 106.051 20.0612 105.663 20.0805H105.139C104.907 20.0612 104.674 20.1581 104.538 20.3519C104.422 20.5652 104.422 20.7979 104.538 21.0111L108.707 31.8473C108.823 32.2156 109.172 32.4483 109.559 32.4289H110.354C110.722 32.4483 111.071 32.2156 111.168 31.8473L115.316 21.0498C115.414 20.8366 115.394 20.5846 115.278 20.3907C115.122 20.1775 114.89 20.0612 114.657 20.0805Z" fill="white"/>
<path d="M121.656 19.7891C118.05 19.7891 115.55 22.4448 115.55 26.2831C115.433 29.7336 118.128 32.622 121.579 32.7383C121.714 32.7383 121.869 32.7383 122.005 32.7383C123.497 32.7383 124.932 32.2537 126.133 31.3619C126.482 31.1293 126.579 30.6641 126.347 30.3346C126.347 30.3346 126.347 30.3346 126.347 30.3152L126.153 30.0438C126.056 29.8693 125.901 29.753 125.707 29.6948C125.494 29.6561 125.261 29.7142 125.087 29.8499C124.215 30.5284 123.149 30.8967 122.063 30.8967C119.95 30.8967 117.779 29.5398 117.624 26.4963H126.056C126.502 26.4963 126.851 26.1474 126.871 25.7209V25.7015C126.851 22.0571 124.855 19.7891 121.656 19.7891ZM121.598 21.5143C123.051 21.5143 124.641 22.406 124.796 24.8873H117.701C117.973 22.9488 119.64 21.5143 121.598 21.5143Z" fill="white"/>
<path d="M131.812 30.6842C131.386 30.6261 130.746 30.5292 130.746 29.1335V16.1067C130.785 15.6996 130.474 15.3507 130.068 15.3119C130.029 15.3119 129.99 15.3119 129.951 15.3119H129.505C129.118 15.2731 128.769 15.5832 128.73 15.971C128.73 16.0098 128.73 16.0679 128.73 16.1067V29.4242C128.73 32.1381 130.571 32.5452 131.658 32.5452C132.064 32.584 132.413 32.3126 132.471 31.9055C132.471 31.8473 132.471 31.8086 132.471 31.7504V31.4015C132.51 31.0332 132.219 30.723 131.87 30.6842C131.851 30.6842 131.832 30.6842 131.812 30.6842Z" fill="white"/>
<path d="M13.2554 32.5843H6.19932C3.91187 32.5843 2.0703 30.7234 2.0703 28.4553V21.4185C2.10907 20.837 1.68259 20.3523 1.12043 20.2942C0.55826 20.236 0.054249 20.6819 -0.00390625 21.244C-0.00390625 21.3022 -0.00390625 21.3603 -0.00390625 21.4185V28.4553C-0.00390625 31.8864 2.78754 34.6585 6.19932 34.6585H13.2361C13.8176 34.6198 14.2441 34.1158 14.186 33.5342C14.1666 33.0302 13.7595 32.6231 13.2554 32.5843Z" fill="white"/>
<path d="M15.3503 13.1016H8.31357C7.73199 13.1403 7.30555 13.6443 7.36371 14.2259C7.40248 14.7299 7.80956 15.137 8.31357 15.1758H15.3503C17.6378 15.1758 19.4794 17.0367 19.4794 19.3241V26.3609C19.5181 26.9425 20.0221 27.3689 20.6037 27.3108C21.1077 27.272 21.5148 26.8649 21.5536 26.3609V19.3241C21.5536 15.893 18.7815 13.1016 15.3503 13.1016Z" fill="white"/>
<path d="M5.19316 28.0083C4.82484 28.4347 4.86361 29.0938 5.29008 29.4815C5.67778 29.8304 6.25934 29.8111 6.64704 29.4815L7.92649 28.2215C8.29477 27.7756 8.23662 27.1166 7.79077 26.7482C7.40306 26.4381 6.86027 26.4381 6.47257 26.7482L5.19316 28.0083Z" fill="white"/>
<path d="M9.41778 23.7817C9.04943 24.2082 9.08825 24.8673 9.51469 25.255C9.90238 25.6039 10.484 25.5845 10.8717 25.255L12.1317 23.9949C12.5 23.5491 12.4418 22.89 11.996 22.5217C11.6083 22.2115 11.0655 22.2115 10.6778 22.5217L9.41778 23.7817Z" fill="white"/>
<path d="M15.6557 17.9492C15.3843 17.9492 15.1128 18.0655 14.919 18.2593L13.659 19.5194C13.2907 19.9458 13.3294 20.605 13.7559 20.9927C14.1436 21.3415 14.7251 21.3222 15.1128 20.9927L16.3729 19.7326C16.78 19.3255 16.7606 18.6664 16.3535 18.2593C16.1984 18.0655 15.927 17.9686 15.6557 17.9492Z" fill="white"/>
<path d="M104.6 37.449V36.9062H107.759V37.449H106.5V41.1709H105.879V37.449H104.6Z" fill="white"/>
<path d="M107.831 41.153V38.1483H108.413V38.5748C108.587 38.284 108.859 38.1289 109.208 38.1289C109.265 38.1289 109.343 38.1289 109.421 38.1483V38.7492C109.362 38.7492 109.305 38.7299 109.265 38.7299C109.227 38.7299 109.188 38.7299 109.169 38.7299C108.878 38.7299 108.665 38.8462 108.529 39.0594C108.51 39.0982 108.49 39.1369 108.49 39.1757C108.471 39.2145 108.471 39.2532 108.451 39.2921C108.432 39.3308 108.432 39.3696 108.432 39.4084C108.432 39.4471 108.432 39.4859 108.413 39.5053C108.413 39.5247 108.413 39.5634 108.413 39.6022C108.413 39.6409 108.413 39.6798 108.413 39.7379V41.1724H107.831V41.153Z" fill="white"/>
<path d="M109.732 39.6405C109.732 39.4273 109.772 39.2334 109.829 39.0589C109.888 38.8651 109.965 38.71 110.081 38.5549C110.198 38.3998 110.334 38.2835 110.508 38.206C110.683 38.1091 110.876 38.0703 111.09 38.0703C111.536 38.0703 111.865 38.2254 112.098 38.5162V38.1672H112.68V41.1719H112.098V40.823C111.962 40.978 111.826 41.0944 111.652 41.1525C111.496 41.2107 111.303 41.2494 111.09 41.2494C110.876 41.2494 110.683 41.2107 110.508 41.1138C110.334 41.0169 110.198 40.9006 110.081 40.7454C109.965 40.5904 109.888 40.4159 109.829 40.2414C109.752 40.0476 109.732 39.8537 109.732 39.6405ZM110.373 39.2722C110.353 39.3691 110.334 39.466 110.314 39.5629C110.314 39.6599 110.314 39.7568 110.334 39.8537C110.353 39.9507 110.373 40.0476 110.392 40.1251C110.43 40.2221 110.47 40.2996 110.508 40.3577C110.567 40.4547 110.663 40.5322 110.779 40.5904C110.896 40.6485 111.012 40.6679 111.167 40.6679C111.458 40.6679 111.671 40.571 111.845 40.3771C112.001 40.1832 112.078 39.9313 112.078 39.6405C112.078 39.5048 112.059 39.3691 112.02 39.2334C111.982 39.0977 111.923 39.0008 111.845 38.9039C111.768 38.807 111.671 38.7294 111.555 38.6712C111.439 38.6131 111.303 38.5937 111.167 38.5937C111.051 38.5937 110.954 38.6131 110.857 38.6519C110.76 38.6906 110.683 38.7294 110.624 38.7875C110.567 38.8457 110.508 38.9233 110.45 39.0008C110.43 39.0977 110.392 39.1752 110.373 39.2722Z" fill="white"/>
<path d="M113.168 38.1484H113.788L114.524 40.3002L115.242 38.1484H115.843L114.757 41.1531H114.253L113.168 38.1484Z" fill="white"/>
<path d="M116.133 39.6211C116.133 39.466 116.152 39.3304 116.171 39.1946C116.211 39.0589 116.249 38.9426 116.307 38.8264C116.365 38.71 116.423 38.6131 116.501 38.5356C116.579 38.458 116.656 38.3804 116.753 38.3224C116.869 38.2254 117.005 38.1672 117.14 38.1285C117.277 38.0897 117.432 38.0703 117.567 38.0703C117.703 38.0703 117.838 38.0897 117.975 38.1285C118.11 38.1672 118.226 38.2254 118.362 38.3029C118.478 38.3804 118.595 38.4968 118.692 38.6325C118.789 38.7682 118.866 38.9426 118.905 39.1365C118.944 39.2915 118.963 39.4854 118.963 39.7181V39.7762H116.734C116.734 40.067 116.831 40.2996 117.005 40.474C117.14 40.6292 117.354 40.7067 117.626 40.7067C117.703 40.7067 117.78 40.6873 117.858 40.6679C117.935 40.6485 117.994 40.6098 118.052 40.5904C118.11 40.5516 118.168 40.5129 118.207 40.4547C118.246 40.3965 118.284 40.3384 118.324 40.2802H118.944C118.847 40.5129 118.73 40.7067 118.614 40.8424C118.478 40.978 118.343 41.075 118.187 41.1332C118.071 41.1719 117.975 41.2107 117.897 41.2301C117.8 41.2495 117.703 41.2494 117.606 41.2494C117.16 41.2494 116.791 41.1138 116.52 40.823C116.268 40.5129 116.133 40.1251 116.133 39.6211ZM118.343 39.3304C118.324 39.0977 118.246 38.9233 118.11 38.7875C117.955 38.6519 117.78 38.5937 117.586 38.5937C117.373 38.5937 117.199 38.6712 117.063 38.807C116.908 38.9426 116.831 39.1365 116.791 39.3497H118.343V39.3304Z" fill="white"/>
<path d="M120.938 41.1515V36.8867H122.644C122.779 36.8867 122.896 36.9061 123.012 36.9255C123.128 36.9449 123.245 37.003 123.342 37.0612C123.438 37.1194 123.535 37.1775 123.632 37.2745C123.729 37.352 123.807 37.4489 123.865 37.5652C124 37.7785 124.059 38.0111 124.059 38.2825C124.059 38.5539 124 38.7865 123.865 38.9997C123.729 39.213 123.554 39.368 123.342 39.5037C123.128 39.6201 122.896 39.6782 122.624 39.6782H121.519V41.1708H120.938V41.1515ZM121.558 39.0966H122.644C122.896 39.0966 123.089 39.0191 123.245 38.864C123.399 38.7089 123.477 38.5151 123.477 38.2631C123.477 38.0111 123.399 37.8172 123.245 37.6622C123.089 37.507 122.876 37.4296 122.644 37.4296H121.558V39.0966Z" fill="white"/>
<path d="M124.255 39.6211C124.255 39.466 124.274 39.3304 124.294 39.1946C124.333 39.0589 124.371 38.9426 124.43 38.8264C124.488 38.71 124.546 38.6131 124.623 38.5356C124.701 38.458 124.779 38.3804 124.876 38.3224C124.992 38.2254 125.128 38.1672 125.263 38.1285C125.399 38.0897 125.554 38.0703 125.69 38.0703C125.826 38.0703 125.961 38.0897 126.097 38.1285C126.232 38.1672 126.349 38.2254 126.484 38.3029C126.6 38.3804 126.717 38.4968 126.814 38.6325C126.911 38.7682 126.989 38.9426 127.027 39.1365C127.066 39.2915 127.085 39.4854 127.085 39.7181V39.7762H124.856C124.856 40.067 124.953 40.2996 125.128 40.474C125.263 40.6292 125.477 40.7067 125.748 40.7067C125.826 40.7067 125.903 40.6873 125.98 40.6679C126.058 40.6485 126.116 40.6098 126.174 40.5904C126.232 40.5516 126.291 40.5129 126.329 40.4547C126.368 40.3965 126.407 40.3384 126.446 40.2802H127.066C126.969 40.5129 126.852 40.7067 126.736 40.8424C126.6 40.978 126.465 41.075 126.31 41.1332C126.194 41.1719 126.097 41.2107 126.019 41.2301C125.923 41.2495 125.826 41.2494 125.728 41.2494C125.282 41.2494 124.914 41.1138 124.643 40.823C124.39 40.5129 124.255 40.1251 124.255 39.6211ZM126.465 39.3304C126.446 39.0977 126.368 38.9233 126.232 38.7875C126.077 38.6519 125.903 38.5937 125.709 38.5937C125.496 38.5937 125.321 38.6712 125.185 38.807C125.031 38.9426 124.953 39.1365 124.914 39.3497H126.465V39.3304Z" fill="white"/>
<path d="M127.8 41.153V38.1483H128.381V38.5748C128.555 38.284 128.827 38.1289 129.176 38.1289C129.234 38.1289 129.312 38.1289 129.389 38.1483V38.7492C129.331 38.7492 129.273 38.7299 129.234 38.7299C129.196 38.7299 129.156 38.7299 129.137 38.7299C128.847 38.7299 128.633 38.8462 128.498 39.0594C128.478 39.0982 128.458 39.1369 128.458 39.1757C128.439 39.2145 128.439 39.2532 128.42 39.2921C128.401 39.3308 128.401 39.3696 128.401 39.4084C128.401 39.4471 128.401 39.4859 128.381 39.5053C128.381 39.5247 128.381 39.5634 128.381 39.6022C128.381 39.6409 128.381 39.6798 128.381 39.7379V41.1724H127.8V41.153Z" fill="white"/>
<path d="M129.936 41.1515V36.8867H130.517V39.3487L131.7 38.1468H132.455L131.059 39.5232L132.494 41.1515H131.68L130.517 39.7751V41.1515H129.936Z" fill="white"/>
<path d="M119.678 40.5505C119.678 40.7444 119.736 40.8994 119.853 41.0158C119.95 41.1127 120.085 41.1708 120.259 41.1708V40.3373V38.7477V36.8867H119.678V40.5505Z" fill="white"/>
<path d="M74.8828 37.2148H75.9296C76.6856 37.2148 77.2672 37.525 77.2672 38.3198V38.3392C77.2672 39.1533 76.6856 39.4635 75.9296 39.4635H75.193V41.15H74.8828V37.2148ZM75.949 39.2115C76.5887 39.2115 76.957 38.9401 76.957 38.3392V38.3198C76.957 37.6801 76.5499 37.4668 75.9296 37.4668H75.1736V39.2115H75.949Z" fill="white"/>
<path d="M77.6143 39.7386V39.6998C77.6143 38.8275 78.2343 38.2266 79.01 38.2266C79.785 38.2266 80.4058 38.8081 80.4058 39.6804V39.7192C80.4058 40.5915 79.785 41.1925 79.01 41.1925C78.2151 41.1925 77.6143 40.5915 77.6143 39.7386ZM80.0954 39.7386V39.6998C80.0954 38.9438 79.6301 38.4785 79.01 38.4785C78.3899 38.4785 77.9247 38.9438 77.9247 39.6998V39.7386C77.9247 40.4752 78.3899 40.9404 79.01 40.9404C79.6301 40.9404 80.0954 40.4752 80.0954 39.7386Z" fill="white"/>
<path d="M80.7354 38.2617H81.045L81.8207 40.7818L82.6157 38.2617H82.8675L83.6232 40.7818L84.3989 38.2617H84.6893L83.7788 41.1501H83.4491L82.732 38.7463L81.9755 41.1501H81.6458L80.7354 38.2617Z" fill="white"/>
<path d="M85.0391 39.7386V39.6998C85.0391 38.8275 85.5821 38.2266 86.3578 38.2266C87.0557 38.2266 87.6173 38.6724 87.6173 39.6223V39.7192H85.3302C85.3495 40.4946 85.7177 40.9211 86.3963 40.9211C86.8809 40.9211 87.1913 40.7272 87.3076 40.3201H87.598C87.4817 40.8629 87.0164 41.173 86.3963 41.173C85.5629 41.1925 85.0391 40.6109 85.0391 39.7386ZM87.3076 39.506C87.2883 38.8081 86.9194 38.4785 86.3578 38.4785C85.7955 38.4785 85.408 38.8662 85.3495 39.506H87.3076Z" fill="white"/>
<path d="M88.2939 38.2653H88.5851V38.8662C88.74 38.5174 89.0304 38.2459 89.5542 38.2266V38.4979C88.9918 38.5174 88.5851 38.7693 88.5851 39.5447V41.1343H88.2939V38.2653Z" fill="white"/>
<path d="M89.8828 39.7386V39.6998C89.8828 38.8275 90.4259 38.2266 91.2008 38.2266C91.8987 38.2266 92.461 38.6724 92.461 39.6223V39.7192H90.1732C90.1932 40.4946 90.5614 40.9211 91.2393 40.9211C91.7246 40.9211 92.0343 40.7272 92.1506 40.3201H92.4418C92.3254 40.8629 91.8602 41.173 91.2393 41.173C90.4259 41.1925 89.8828 40.6109 89.8828 39.7386ZM92.1698 39.506C92.1506 38.8081 91.7824 38.4785 91.2201 38.4785C90.6577 38.4785 90.2703 38.8662 90.2125 39.506H92.1698Z" fill="white"/>
<path d="M92.9492 39.7558V39.7171C92.9492 38.8254 93.5308 38.2438 94.2865 38.2438C94.8488 38.2438 95.1785 38.5733 95.3333 38.9223V36.9062H95.6245V41.1709H95.3333V40.5119C95.1785 40.8608 94.7718 41.2291 94.2287 41.2291C93.5115 41.1904 92.9492 40.6669 92.9492 39.7558ZM95.3333 39.7365V39.6977C95.3333 38.9029 94.9073 38.4958 94.3065 38.4958C93.6856 38.4958 93.2396 38.9417 93.2396 39.7171V39.7558C93.2396 40.5506 93.6856 40.9577 94.2672 40.9577C94.8488 40.9383 95.3333 40.5119 95.3333 39.7365Z" fill="white"/>
<path d="M98.1779 40.4923V41.1515H97.8867V36.8867H98.1779V38.9416C98.352 38.5732 98.7595 38.2243 99.2825 38.2243C99.9997 38.2243 100.581 38.7865 100.581 39.6782V39.717C100.581 40.6281 100.039 41.1902 99.2825 41.1902C98.7009 41.1902 98.3327 40.8413 98.1779 40.4923ZM100.252 39.7364V39.6975C100.252 38.9028 99.7863 38.4763 99.2247 38.4763C98.6624 38.4763 98.1579 38.9028 98.1579 39.6975V39.7364C98.1579 40.5312 98.6432 40.9382 99.244 40.9382C99.8448 40.9382 100.252 40.5118 100.252 39.7364Z" fill="white"/>
<path d="M102.019 40.8981L100.876 38.2617H101.186L102.175 40.5491L103.086 38.2617H103.376L101.786 42.1387H101.477L102.019 40.8981Z" fill="white"/>
</g>
</g>
<defs>
<clipPath id="clip0_984_261">
<rect width="133.262" height="50.0696" fill="white"/>
</clipPath>
</defs>
</svg>
