<svg width="20" height="20" viewBox="0 0 20 20" fill="none" xmlns="http://www.w3.org/2000/svg">
<path d="M18.3337 10.0013C18.3337 14.6036 14.6027 18.3346 10.0003 18.3346C5.39795 18.3346 1.66699 14.6036 1.66699 10.0013C1.66699 5.39893 5.39795 1.66797 10.0003 1.66797C14.6027 1.66797 18.3337 5.39893 18.3337 10.0013Z" fill="#1C274C"/>
<path fill-rule="evenodd" clip-rule="evenodd" d="M10 6.04297C10.3452 6.04297 10.625 6.32279 10.625 6.66797V9.74239L12.5253 11.6427C12.7693 11.8868 12.7693 12.2825 12.5253 12.5266C12.2812 12.7706 11.8855 12.7706 11.6414 12.5266L9.55808 10.4432C9.44083 10.3261 9.375 10.1671 9.375 10.0013V6.66797C9.375 6.32279 9.65483 6.04297 10 6.04297Z" fill="white"/>
</svg>
