<svg width="63" height="51" viewBox="0 0 63 51" fill="none" xmlns="http://www.w3.org/2000/svg">
<g clip-path="url(#clip0_984_234)">
<path d="M0 25.2636C0 30.4381 3.58178 33.6545 8.11385 33.6545C9.7066 33.6545 11.2994 33.2697 12.4612 32.4003V28.3568C11.4084 29.2968 10.0446 29.8135 8.63318 29.8072C6.2787 29.8072 4.40125 28.1221 4.40125 25.2752C4.40125 22.4282 6.27101 20.7739 8.63318 20.7739C10.0519 20.7467 11.4277 21.2613 12.4805 22.2128V18.1616C11.3263 17.2729 9.72586 16.9343 8.1331 16.9343C3.58178 16.9343 0 20.1507 0 25.2636Z" fill="white"/>
<path d="M21.6942 16.9343C17.0775 16.9343 13.8535 20.3661 13.8535 25.2636C13.8535 30.1611 17.0698 33.6545 21.6942 33.6545C26.3186 33.6545 29.5618 30.192 29.5618 25.2636C29.5618 20.3353 26.3494 16.9343 21.6942 16.9343ZM21.6942 29.888C19.4898 29.888 18.2624 27.9644 18.2624 25.2713C18.2624 22.5783 19.4898 20.6777 21.6942 20.6777C23.8987 20.6777 25.1221 22.6013 25.1221 25.2713C25.1221 27.9413 23.9295 29.888 21.6942 29.888Z" fill="white"/>
<path d="M42.2657 18.6195C41.7405 18.0801 41.1113 17.6527 40.4165 17.3631C39.7215 17.0735 38.9751 16.9277 38.2222 16.9344C33.5671 16.9344 30.9355 20.7008 30.9355 25.2637C30.9355 29.8803 33.5671 33.6545 38.2222 33.6545C38.9741 33.6543 39.7184 33.5052 40.4124 33.216C41.1063 32.9268 41.7362 32.5031 42.2657 31.9694V33.289H46.7054V12.1099H42.2657V18.6195ZM42.2657 27.9298C41.9779 28.4848 41.5426 28.9496 41.0078 29.2734C40.473 29.5972 39.8593 29.7672 39.2341 29.7649C36.8141 29.7649 35.3868 27.8412 35.3868 25.2637C35.3868 22.686 36.8257 20.7931 39.2341 20.7931C39.8628 20.7945 40.4788 20.97 41.0139 21.3C41.549 21.63 41.9823 22.1017 42.2657 22.6629V27.9298Z" fill="white"/>
<path d="M55.2426 17.0074C53.0997 17.0074 51.0492 17.5923 49.8835 18.3271V22.1743C51.1833 21.3178 52.7049 20.8591 54.2616 20.8547C56.5276 20.8547 57.8473 21.8357 57.8473 23.3977V24.2864C57.2009 23.8248 55.6389 23.3362 54.2616 23.3362C50.7414 23.3362 48.0791 25.4176 48.0791 28.48C48.0791 31.7886 50.7414 33.6545 53.9884 33.6545C55.7312 33.6545 57.324 33.0428 57.8357 32.5234V33.3813H62.1215V23.1323C62.1331 19.2427 59.6208 17.0074 55.2426 17.0074ZM57.8473 29.0109C57.4625 29.8688 56.2852 30.392 55.0272 30.392C53.6191 30.392 52.1802 29.8072 52.1802 28.4299C52.1802 27.0526 53.6191 26.4717 55.0272 26.4717C56.2852 26.4717 57.4471 26.9911 57.8473 27.849V29.0109Z" fill="white"/>
</g>
<defs>
<clipPath id="clip0_984_234">
<rect width="62.3946" height="50.0698" fill="white"/>
</clipPath>
</defs>
</svg>
