<svg width="44" height="44" viewBox="0 0 44 44" fill="none" xmlns="http://www.w3.org/2000/svg">
<g clip-path="url(#clip0_984_375)">
<path d="M22 1.83203V42.1654" stroke="#F26522" stroke-width="4" stroke-linecap="round" stroke-linejoin="round"/>
<path d="M31.1667 9.16797H17.4167C15.7149 9.16797 14.0828 9.84401 12.8794 11.0474C11.676 12.2507 11 13.8828 11 15.5846C11 17.2864 11.676 18.9185 12.8794 20.1219C14.0828 21.3253 15.7149 22.0013 17.4167 22.0013H26.5833C28.2851 22.0013 29.9172 22.6773 31.1206 23.8807C32.324 25.0841 33 26.7162 33 28.418C33 30.1198 32.324 31.7519 31.1206 32.9552C29.9172 34.1586 28.2851 34.8346 26.5833 34.8346H11" stroke="#F26522" stroke-width="4" stroke-linecap="round" stroke-linejoin="round"/>
</g>
<defs>
<clipPath id="clip0_984_375">
<rect width="44" height="44" fill="white"/>
</clipPath>
</defs>
</svg>
