<svg width="32" height="32" viewBox="0 0 32 32" fill="none" xmlns="http://www.w3.org/2000/svg">
<path d="M16.0003 20.668C16.7337 20.668 17.3614 20.4069 17.8837 19.8846C18.4059 19.3624 18.667 18.7346 18.667 18.0013C18.667 17.268 18.4059 16.6402 17.8837 16.118C17.3614 15.5957 16.7337 15.3346 16.0003 15.3346C15.267 15.3346 14.6392 15.5957 14.117 16.118C13.5948 16.6402 13.3337 17.268 13.3337 18.0013C13.3337 18.7346 13.5948 19.3624 14.117 19.8846C14.6392 20.4069 15.267 20.668 16.0003 20.668ZM5.33366 28.0013C4.60033 28.0013 3.97255 27.7402 3.45033 27.218C2.9281 26.6957 2.66699 26.068 2.66699 25.3346V10.668C2.66699 9.93464 2.9281 9.30686 3.45033 8.78464C3.97255 8.26241 4.60033 8.0013 5.33366 8.0013H10.667V5.33464C10.667 4.6013 10.9281 3.97352 11.4503 3.4513C11.9725 2.92908 12.6003 2.66797 13.3337 2.66797H18.667C19.4003 2.66797 20.0281 2.92908 20.5503 3.4513C21.0725 3.97352 21.3337 4.6013 21.3337 5.33464V8.0013H26.667C27.4003 8.0013 28.0281 8.26241 28.5503 8.78464C29.0725 9.30686 29.3337 9.93464 29.3337 10.668V25.3346C29.3337 26.068 29.0725 26.6957 28.5503 27.218C28.0281 27.7402 27.4003 28.0013 26.667 28.0013H5.33366ZM5.33366 25.3346H26.667V10.668H5.33366V25.3346ZM13.3337 8.0013H18.667V5.33464H13.3337V8.0013Z" fill="#15365F"/>
</svg>
