<svg width="86" height="51" viewBox="0 0 86 51" fill="none" xmlns="http://www.w3.org/2000/svg">
<g clip-path="url(#clip0_984_308)">
<path fill-rule="evenodd" clip-rule="evenodd" d="M9.83692 16.8181C10.054 16.6011 10.2167 16.4382 9.99968 16.4382C9.96024 16.4382 9.89854 16.4423 9.81905 16.4476C9.13359 16.4932 7.12737 16.6264 6.68975 14.9732C6.2014 13.1283 8.86022 7.6479 8.96875 7.43085C9.02298 7.21381 8.86022 6.9425 8.53463 6.9425C8.34715 6.9425 8.18562 7.09794 8.08579 7.19402C8.04112 7.23699 8.00877 7.26807 7.99205 7.26807C7.31034 8.12697 6.55674 9.03727 5.80262 9.94819C3.55538 12.6627 1.3037 15.3825 0.938044 16.7638C-0.309965 21.376 4.51929 23.2752 7.55793 23.6007C7.6122 23.6007 7.6122 23.5465 7.6122 23.5465V21.9186C7.66645 19.6939 8.4804 18.0118 9.83692 16.8181ZM85.2608 16.7638C84.8749 15.3082 82.4293 12.3661 80.0553 9.51029L80.0546 9.51021C79.4199 8.74672 78.7906 7.98917 78.2067 7.26807C78.1982 7.25992 78.1874 7.24686 78.1743 7.23055C78.0996 7.13838 77.941 6.9425 77.6637 6.9425C77.3925 6.9425 77.1753 7.21381 77.2839 7.43085C77.3925 7.6479 80.0515 13.1825 79.5631 14.9732C79.1256 16.6264 77.1191 16.4932 76.4339 16.4476C76.3544 16.4423 76.2927 16.4382 76.2532 16.4382C76.0362 16.4382 76.1989 16.6011 76.416 16.8181C77.7723 18.0118 78.6404 19.6939 78.6404 21.8644V23.4922C78.6404 23.5194 78.6404 23.5329 78.6473 23.5397C78.6542 23.5465 78.6681 23.5465 78.6951 23.5465C81.7877 23.2752 86.5086 21.376 85.2608 16.7638ZM73.2688 27.4533C73.2688 29.0269 71.1526 29.895 69.7961 29.895C68.331 29.895 66.2691 29.0269 66.2691 27.4533V21.9186C66.2691 20.345 68.331 19.6396 69.7961 19.6396C71.1526 19.6396 73.2688 20.3993 73.2688 21.9186V27.4533ZM69.7961 16.1669C66.5404 16.2212 62.7421 18.066 62.7421 21.8644V27.6703C62.7421 31.5228 66.5404 33.3678 69.7961 33.3678C72.9975 33.3135 76.7958 31.5228 76.7958 27.6703V21.9186C76.7958 18.1203 72.9975 16.2212 69.7961 16.1669ZM45.2695 29.895C46.626 29.895 48.7422 29.0269 48.7422 27.4533V21.9186C48.7422 20.3993 46.626 19.6396 45.2695 19.6396C43.8044 19.6396 41.7425 20.345 41.7425 21.9186V27.4533C41.7425 29.0269 43.8044 29.895 45.2695 29.895ZM38.1613 21.8644C38.1613 18.066 41.9595 16.2212 45.2152 16.1669C48.4166 16.2212 52.215 18.1203 52.215 21.9186V27.6703C52.215 31.5228 48.4166 33.3135 45.2152 33.3678C41.9595 33.3678 38.1613 31.5228 38.1613 27.6703V21.8644ZM30.619 16.4926C33.4407 16.4926 35.3398 16.7639 37.9444 17.4693C37.9986 17.4693 38.0529 17.5778 38.0529 17.6864C37.1304 18.3918 36.6964 19.4227 36.4793 20.5079C35.0685 20.1281 33.8747 19.9654 32.4097 19.8568V33.2594C32.4097 33.3136 32.3555 33.3136 32.3012 33.3136H28.9369C28.8827 33.3136 28.8285 33.3136 28.8285 33.2594V19.8568C27.3091 19.9654 26.0068 20.1824 24.5961 20.5079C24.4333 19.4227 24.0534 18.446 23.1853 17.6864C23.131 17.6321 23.1853 17.5236 23.2938 17.4693C25.8983 16.7639 27.8517 16.4926 30.619 16.4926ZM62.8506 16.3293C62.5793 16.2751 61.8739 16.1666 61.2227 16.2208C58.0213 16.3293 54.3857 18.2285 54.3857 21.9182V33.3674C54.3857 33.4216 54.44 33.4216 54.4943 33.4216H57.8585C57.9128 33.4216 57.967 33.4216 57.967 33.3674V21.9182C57.967 20.6702 59.4864 19.9648 60.7343 19.6935C61.1142 18.4998 61.8196 17.5774 62.9048 16.7091C63.0676 16.5464 63.0133 16.3293 62.8506 16.3293ZM19.4952 23.0033C19.5495 22.949 19.5495 22.949 19.5495 22.8948V21.9181C19.5495 20.3445 17.7588 19.5849 16.3481 19.5849C14.883 19.5849 12.9838 20.3445 12.9838 21.9181V23.0575H19.3867C19.4409 23.0575 19.4952 23.0575 19.4952 23.0033ZM9.40257 21.8638C9.40257 18.0113 13.0381 16.1121 16.3481 16.0579C19.6038 16.1121 23.0222 18.0113 23.0222 21.9181V25.1195C23.0222 25.6078 22.6424 25.9877 22.154 25.9877H12.9838V27.724C12.9838 29.2976 14.883 30.2201 16.3481 30.2201C17.4333 30.2201 19.0069 29.6774 19.6038 28.6465C19.658 28.5922 19.658 28.5922 19.7123 28.5922C20.7201 29.1201 21.3459 29.4782 22.2654 30.0044C22.3856 30.0732 22.5107 30.1448 22.6424 30.2201C22.6966 30.2743 22.7509 30.3828 22.6966 30.4371C21.3944 32.5533 18.7356 33.53 16.3481 33.53C13.0381 33.4757 9.40257 31.6308 9.40257 27.724V21.8638Z" fill="white"/>
</g>
<defs>
<clipPath id="clip0_984_308">
<rect width="85.4997" height="50.0674" fill="white" transform="translate(0 0.00427246)"/>
</clipPath>
</defs>
</svg>
