<svg width="116" height="51" viewBox="0 0 116 51" fill="none" xmlns="http://www.w3.org/2000/svg">
<g clip-path="url(#clip0_984_312)">
<path d="M0.00195312 6.25867H37.559V43.8144H0.00195312V6.25867Z" fill="white"/>
<path d="M45.9082 20.8798H48.131V24.0693H50.7672V20.8798H52.9968V29.2239H50.7672V25.6463H48.131V29.2239H45.9082V20.8798Z" fill="white"/>
<path d="M56.3104 26.773C56.3104 26.1762 56.5972 25.8765 57.0663 25.627C57.6992 26.2096 58.3266 26.8084 58.9201 27.4644C58.5041 27.7792 58.1532 27.9239 57.6522 27.9239C56.98 27.9239 56.3104 27.4922 56.3104 26.773ZM60.7765 24.7032C60.7547 25.2395 60.612 25.7901 60.2286 26.2102C59.7602 25.7561 59.2776 25.3129 58.7881 24.882C59.6773 24.3653 60.5841 23.8283 60.5841 22.774C60.5841 21.2153 59.1498 20.7157 57.6863 20.7157C56.3771 20.7157 54.9054 21.2384 54.9054 22.7128C54.9054 23.4449 55.2425 24.0173 55.9148 24.5454C54.8842 25.0261 54.2725 25.6609 54.2725 26.82C54.2725 28.5439 55.8454 29.3595 57.4354 29.3595C58.3443 29.3595 59.3171 29.2067 60.0342 28.5812C60.2184 28.773 60.3673 28.9884 60.5372 29.2161H62.9212L61.4372 27.5636C62.2121 26.7948 62.669 25.7663 62.7199 24.7025L60.7765 24.7032ZM56.8263 22.8209C56.8263 22.4022 57.1948 22.0786 57.7141 22.0786C58.2287 22.0786 58.6461 22.3301 58.6461 22.8209C58.6461 23.3722 58.0343 23.7087 57.6292 23.9486C57.2934 23.6835 56.8263 23.3015 56.8263 22.8209Z" fill="white"/>
<path d="M66.1055 22.4427H66.6968C67.5411 22.4427 68.3235 22.5854 68.3235 23.3645C68.3235 24.3073 67.414 24.3318 66.6968 24.3318H66.1055V22.4427ZM63.8806 29.2186H66.1055V25.9108H66.5738C67.399 25.9108 67.6873 26.2739 68.1427 27.7095L68.6219 29.2186H70.9426L70.1331 26.9407C69.7143 25.9252 69.6653 25.2889 68.9482 25.0979V25.0761C70.0209 24.8233 70.5491 24.0809 70.5491 22.9662C70.5491 21.5304 69.3439 20.8602 67.8552 20.8602H63.8799L63.8806 29.2186Z" fill="white"/>
<path d="M77.7596 25.6736H78.4392C79.2067 25.6736 80.0853 25.7586 80.0853 26.6702C80.0853 27.5199 79.2317 27.6368 78.4173 27.6368H77.7596V25.6736ZM75.5312 29.2186H79.051C80.5517 29.2186 82.3129 28.8006 82.3129 26.7973C82.3129 25.7824 81.7339 25.1815 80.6244 24.9558V24.93C81.5578 24.6207 82.093 24.0313 82.093 22.9791C82.093 21.5407 80.935 20.8602 79.3765 20.8602H75.532L75.5312 29.2186ZM77.7596 22.4427H78.404C79.1472 22.4427 79.8655 22.5134 79.8655 23.2816C79.8655 23.9871 79.1113 24.1639 78.3813 24.1639H77.7589L77.7596 22.4427Z" fill="white"/>
<path d="M83.582 20.8602H85.8111V27.5661H89.2576V29.2179H83.582V20.8602Z" fill="white"/>
<path d="M91.8341 25.039C91.8341 23.5897 92.3716 22.3668 93.7228 22.3668C95.078 22.3668 95.6194 23.5897 95.6194 25.039C95.6194 26.4169 95.078 27.7077 93.7228 27.7077C92.3716 27.7077 91.8341 26.4169 91.8341 25.039ZM89.5361 25.039C89.5361 27.6921 90.9946 29.3595 93.7228 29.3595C96.455 29.3595 97.9158 27.6921 97.9158 25.039C97.9158 22.3552 96.4769 20.7157 93.7228 20.7157C90.9672 20.7157 89.5361 22.3552 89.5361 25.039Z" fill="white"/>
<path d="M106.081 29.0231C105.447 29.1788 104.736 29.3602 103.602 29.3602C101.376 29.3602 98.8008 28.2359 98.8008 25.0744C98.8008 22.1622 100.831 20.7157 103.588 20.7157C104.442 20.7157 105.269 20.9067 106.069 21.1466L105.889 22.9514C105.168 22.5558 104.476 22.3668 103.712 22.3668C102.125 22.3668 101.096 23.5156 101.096 25.0744C101.096 26.7153 102.258 27.7078 103.887 27.7078C104.619 27.7078 105.363 27.5174 105.97 27.274L106.081 29.0231Z" fill="white"/>
<path d="M107.118 20.8719H109.328V24.2877H109.352L111.916 20.8719H114.566L111.512 24.7602L114.803 29.2154H112L109.352 25.4189H109.328V29.2154H107.118V20.8719Z" fill="white"/>
</g>
<defs>
<clipPath id="clip0_984_312">
<rect width="115.014" height="50.0743" fill="white" transform="translate(0 0.000854492)"/>
</clipPath>
</defs>
</svg>
