<svg width="91" height="51" viewBox="0 0 91 51" fill="none" xmlns="http://www.w3.org/2000/svg">
<g clip-path="url(#clip0_984_304)">
<path fill-rule="evenodd" clip-rule="evenodd" d="M19.201 9.46042L1.88307 10.7395C0.486154 10.8605 0 11.7733 0 12.8677V31.8527C0 32.7051 0.302543 33.4343 1.03282 34.4087L5.10358 39.7022C5.77229 40.5545 6.38051 40.7371 7.65745 40.6765L27.7681 39.459C29.4687 39.3381 29.9558 38.5463 29.9558 37.2077V15.8493C29.9558 15.1577 29.6825 14.9584 28.8782 14.3679C28.8319 14.3345 28.7856 14.3012 28.7395 14.2677L23.2123 10.3733C21.8748 9.40096 21.3282 9.27788 19.201 9.46042ZM8.1123 15.4998C6.47023 15.6104 6.09779 15.6354 5.16512 14.877L2.79382 12.9908C2.55283 12.7467 2.67384 12.4421 3.28102 12.3816L19.9292 11.1651C21.3271 11.0431 22.0553 11.5303 22.602 11.9559L25.4574 14.0247C25.5794 14.0862 25.883 14.4503 25.5178 14.4503L8.32513 15.4852L8.1123 15.4998ZM6.19794 37.0252V18.8935C6.19794 18.1017 6.44102 17.7366 7.16921 17.675L26.9158 16.5191C27.5856 16.4585 27.8882 16.8842 27.8882 17.675V35.6857C27.8882 36.4775 27.7661 37.1473 26.6727 37.2077L7.77638 38.3032C6.68305 38.3636 6.19794 37.9996 6.19794 37.0252ZM24.8512 19.8658C24.9723 20.4135 24.8512 20.9612 24.3035 21.0238L23.3927 21.2043V34.5913C22.602 35.0169 21.8738 35.26 21.2656 35.26C20.2933 35.26 20.0502 34.9553 19.322 34.0436L13.3661 24.6731V33.739L15.2502 34.1656C15.2502 34.1656 15.2502 35.261 13.7302 35.261L9.53947 35.5041C9.41741 35.26 9.53947 34.6518 9.9641 34.5308L11.0584 34.2272V22.2403L9.53947 22.1171C9.41741 21.5694 9.72099 20.7787 10.5723 20.7171L15.0687 20.4145L21.2656 29.906V21.5089L19.6861 21.3274C19.564 20.6566 20.0502 20.1694 20.6573 20.1099L24.8512 19.8658Z" fill="white"/>
<path d="M43.2254 31.5595V23.3074H43.3684L49.3191 31.5595H51.1928V19.4327H49.1094V27.6765H48.9665L43.0157 19.4327H41.1348V31.5585H43.2265L43.2254 31.5595ZM57.0808 31.7452C59.8298 31.7452 61.5021 29.9466 61.5021 26.9629C61.5021 23.9876 59.8215 22.1806 57.0808 22.1806C54.3497 22.1806 52.6606 23.9959 52.6606 26.9629C52.6606 29.9466 54.3246 31.7452 57.0808 31.7452ZM57.0808 29.9967C55.6276 29.9967 54.7961 28.8877 54.7961 26.9629C54.7961 25.0465 55.6276 23.9292 57.0808 23.9292C58.5268 23.9292 59.3583 25.0465 59.3583 26.9629C59.3583 28.8877 58.5351 29.9967 57.0808 29.9967ZM63.406 20.114V22.4248H61.9528V24.0888H63.406V29.1058C63.406 30.8876 64.2469 31.6023 66.3564 31.6023C66.7591 31.6023 67.1461 31.5605 67.4487 31.501V29.8704C67.1962 29.8955 67.0366 29.9122 66.7424 29.9122C65.8692 29.9122 65.4822 29.5095 65.4822 28.6019V24.0888H67.4487V22.4248H65.4822V20.113H63.406V20.114ZM68.6974 31.5595H70.7735V22.3653H68.6974V31.5595ZM69.7313 20.8453C70.4198 20.8453 70.9749 20.2893 70.9749 19.5923C70.9749 18.8944 70.4209 18.3311 69.7313 18.3311C69.0511 18.3311 68.4877 18.8944 68.4877 19.5923C68.4877 20.2893 69.0511 20.8442 69.7313 20.8442V20.8453ZM76.4686 31.7452C79.2166 31.7452 80.8887 29.9466 80.8887 26.9629C80.8887 23.9876 79.208 22.1806 76.4686 22.1806C73.7363 22.1806 72.0473 23.9959 72.0473 26.9629C72.0473 29.9466 73.7113 31.7452 76.4686 31.7452ZM76.4686 29.9967C75.0143 29.9967 74.1818 28.8877 74.1818 26.9629C74.1818 25.0465 75.0143 23.9292 76.4686 23.9292C77.9135 23.9292 78.7463 25.0465 78.7463 26.9629C78.7463 28.8877 77.9218 29.9967 76.4686 29.9967ZM82.1296 31.5595H84.214V26.2066C84.214 24.8534 84.9965 23.9959 86.239 23.9959C87.5081 23.9959 88.0957 24.7022 88.0957 26.1053V31.5595H90.1809V25.6098C90.1809 23.4159 89.0628 22.1806 87.0128 22.1806C85.642 22.1806 84.7179 22.8108 84.2805 23.8363H84.1373V22.3653H82.1296V31.5595Z" fill="white"/>
</g>
<defs>
<clipPath id="clip0_984_304">
<rect width="90.7627" height="50.076" fill="white"/>
</clipPath>
</defs>
</svg>
