<svg width="32" height="32" viewBox="0 0 32 32" fill="none" xmlns="http://www.w3.org/2000/svg">
<path d="M15.9997 29.3346C12.9108 28.5569 10.3608 26.7846 8.34967 24.018C6.33856 21.2513 5.33301 18.1791 5.33301 14.8013V6.66797L15.9997 2.66797L26.6663 6.66797V14.8013C26.6663 18.1791 25.6608 21.2513 23.6497 24.018C21.6386 26.7846 19.0886 28.5569 15.9997 29.3346ZM15.9997 26.5346C18.1552 25.868 19.9552 24.5513 21.3997 22.5846C22.8441 20.618 23.6886 18.4235 23.933 16.0013H15.9997V5.5013L7.99967 8.5013V15.4013C7.99967 15.5569 8.0219 15.7569 8.06634 16.0013H15.9997V26.5346Z" fill="#15365F"/>
</svg>
