<svg width="83" height="30" viewBox="0 0 83 30" fill="none" xmlns="http://www.w3.org/2000/svg">
<g clip-path="url(#clip0_984_598)">
<mask id="mask0_984_598" style="mask-type:luminance" maskUnits="userSpaceOnUse" x="-7" y="-10" width="97" height="49">
<path d="M-6.9043 -9.50436H89.4013V38.6484H-6.9043V-9.50436Z" fill="white"/>
</mask>
<g mask="url(#mask0_984_598)">
<path d="M0.670386 25.0342H1.2879L0.71408 27.4309C0.628921 27.7865 0.644972 28.0542 0.762679 28.2328C0.87994 28.4116 1.09819 28.501 1.4172 28.501C1.73421 28.501 1.99414 28.4116 2.19723 28.2328C2.40054 28.0542 2.54478 27.7865 2.62994 27.4309L3.20354 25.0342H3.82908L3.24121 27.4902C3.11347 28.0239 2.88586 28.4234 2.55994 28.6882C2.23379 28.9535 1.80621 29.0859 1.2772 29.0859C0.747743 29.0859 0.38459 28.9537 0.186852 28.6896C-0.0111098 28.4256 -0.045664 28.0257 0.0825206 27.4902L0.670386 25.0342Z" fill="white"/>
<path d="M3.74609 28.9797L4.72832 24.8766L6.59469 27.2894C6.64462 27.3574 6.69501 27.4303 6.74472 27.5077C6.79443 27.585 6.84526 27.672 6.89743 27.7692L7.55262 25.0329H8.13067L7.14911 29.1328L5.24351 26.677C5.19246 26.6108 5.14498 26.5408 5.10061 26.467C5.05581 26.3932 5.01546 26.3159 4.97845 26.2352L4.32148 28.9797H3.74609Z" fill="white"/>
<path d="M8.0791 28.9805L9.02388 25.0337H9.64897L8.70442 28.9805H8.0791Z" fill="white"/>
<path d="M9.60352 28.9805L10.5483 25.0337H12.6951L12.5647 25.5781H11.0432L10.8076 26.5621H12.3291L12.1944 27.1255H10.6727L10.2288 28.9805H9.60352Z" fill="white"/>
<path d="M12.4395 28.9805L13.3842 25.0337H14.0093L13.0648 28.9805H12.4395Z" fill="white"/>
<path d="M13.9639 28.9805L14.9086 25.0337H17.0555L16.925 25.5781H15.4035L15.1666 26.5675H16.6881L16.5534 27.131H15.0319L14.7265 28.4062H16.248L16.1107 28.9805H13.9639Z" fill="white"/>
<path d="M17.5921 28.4006H18.1178C18.4067 28.4006 18.6283 28.3808 18.7823 28.3413C18.9364 28.3019 19.0777 28.2352 19.2072 28.1418C19.3831 28.0145 19.53 27.8558 19.6482 27.6661C19.7661 27.4766 19.8555 27.2557 19.9157 27.004C19.9757 26.7523 19.9922 26.532 19.965 26.3428C19.9375 26.1528 19.8667 25.9943 19.7518 25.8666C19.6656 25.7734 19.5517 25.7065 19.4094 25.6668C19.267 25.6276 19.0351 25.6078 18.7128 25.6078H18.4867H18.2607L17.5921 28.4006ZM16.8281 28.9805L17.7729 25.0335H18.6162C19.1647 25.0335 19.5436 25.0616 19.7536 25.1182C19.9632 25.1751 20.1364 25.27 20.2726 25.4029C20.4534 25.5772 20.5684 25.801 20.6179 26.0739C20.6672 26.3472 20.6498 26.6591 20.566 27.0095C20.4822 27.36 20.3504 27.6705 20.1707 27.9409C19.9915 28.2116 19.7692 28.4347 19.5048 28.6109C19.3049 28.7439 19.0904 28.8387 18.8626 28.8955C18.6341 28.9519 18.2934 28.9805 17.8396 28.9805H17.6712H16.8281Z" fill="white"/>
<path d="M23.6106 26.6836H23.7711C24.1178 26.6836 24.3583 26.6446 24.4925 26.5675C24.6269 26.4903 24.7172 26.3537 24.764 26.1577C24.8144 25.9475 24.7883 25.799 24.6854 25.713C24.5824 25.6267 24.3657 25.5832 24.0346 25.5832H23.8741L23.6106 26.6836ZM23.4454 27.2088L23.0214 28.9805H22.4355L23.3805 25.0337H24.3264C24.6067 25.0337 24.8093 25.0493 24.9341 25.0808C25.0585 25.112 25.1613 25.1639 25.2425 25.2359C25.3412 25.3275 25.4061 25.451 25.4373 25.6064C25.4683 25.762 25.4616 25.9332 25.417 26.1198C25.372 26.3069 25.2966 26.4794 25.1905 26.6377C25.0844 26.7958 24.96 26.9199 24.8178 27.0095C24.7023 27.0816 24.575 27.1328 24.4354 27.1631C24.2957 27.1939 24.0859 27.2088 23.8057 27.2088H23.6824H23.4454Z" fill="white"/>
<path d="M26.1893 27.4304H27.2613L27.0823 26.5298C27.0738 26.4725 27.0658 26.4065 27.0589 26.3318C27.0524 26.2572 27.048 26.174 27.0451 26.0824C27.0036 26.1687 26.9619 26.2491 26.9202 26.3238C26.8788 26.3983 26.8384 26.4669 26.7987 26.5298L26.1893 27.4304ZM27.5473 28.9805L27.3541 27.9641H25.8299L25.1399 28.9805H24.4834L27.3282 24.8774L28.2068 28.9805H27.5473Z" fill="white"/>
<path d="M29.1028 28.9805L29.5349 27.1741L28.752 25.0337H29.4089L29.8949 26.3735C29.9061 26.4079 29.9194 26.4527 29.9348 26.5084C29.9504 26.5641 29.9656 26.6241 29.9798 26.689C30.0191 26.6261 30.0594 26.5664 30.0998 26.5109C30.1401 26.4551 30.1809 26.4041 30.2222 26.3573L31.3665 25.0337H31.992L30.1551 27.1741L29.7228 28.9805H29.1028Z" fill="white"/>
<path d="M35.0693 27.0322C35.0696 27.0016 35.0785 26.9173 35.0959 26.7789C35.1092 26.6639 35.1197 26.5685 35.1273 26.4929C35.0901 26.583 35.0462 26.673 34.9958 26.7626C34.9452 26.8525 34.8872 26.9441 34.821 27.0377L33.3111 29.1406L32.8184 26.9947C32.7975 26.9064 32.7814 26.821 32.7707 26.7386C32.76 26.6559 32.7527 26.574 32.7491 26.4929C32.7277 26.5758 32.7005 26.6623 32.6673 26.7533C32.6341 26.844 32.5944 26.939 32.5478 27.0377L31.6699 28.9815H31.0947L32.9885 24.8673L33.5276 27.3585C33.5354 27.398 33.5467 27.4637 33.5606 27.5554C33.5744 27.647 33.5906 27.7602 33.6096 27.8949C33.6734 27.7816 33.7652 27.6381 33.886 27.4637C33.9181 27.4169 33.9427 27.381 33.9591 27.3559L35.6639 24.8673L35.6093 28.9815H35.0283L35.0693 27.0322Z" fill="white"/>
<path d="M36.1084 28.9805L37.0534 25.0337H39.2002L39.0698 25.5781H37.5481L37.3113 26.5675H38.8328L38.6982 27.131H37.1765L36.8713 28.4062H38.3928L38.255 28.9805H36.1084Z" fill="white"/>
<path d="M38.9727 28.9797L39.9549 24.8766L41.8213 27.2894C41.8712 27.3574 41.9216 27.4303 41.9713 27.5077C42.021 27.585 42.0718 27.672 42.124 27.7692L42.7792 25.0329H43.3575L42.3757 29.1328L40.4701 26.677C40.419 26.6108 40.3715 26.5408 40.3272 26.467C40.2824 26.3932 40.242 26.3159 40.205 26.2352L39.548 28.9797H38.9727Z" fill="white"/>
<path d="M45.3528 25.5781L44.5384 28.9805H43.9131L44.7272 25.5781H43.7051L43.8355 25.0337H46.4999L46.3698 25.5781H45.3528Z" fill="white"/>
<path d="M46.0021 28.1909L46.5581 27.9539C46.5636 28.1298 46.618 28.2642 46.7219 28.3567C46.8258 28.4495 46.9758 28.4956 47.1725 28.4956C47.3579 28.4956 47.5185 28.4426 47.6531 28.3364C47.788 28.2306 47.8769 28.0886 47.9195 27.9107C47.975 27.6786 47.8366 27.4719 47.5055 27.2907C47.4592 27.2637 47.4235 27.2439 47.399 27.2312C47.0256 27.0192 46.7888 26.8272 46.6889 26.6556C46.5893 26.4839 46.5688 26.2741 46.6281 26.0262C46.705 25.7045 46.874 25.4439 47.1346 25.2444C47.3952 25.0449 47.6979 24.945 48.0432 24.945C48.327 24.945 48.5511 25.0012 48.7149 25.1136C48.879 25.2261 48.9726 25.3873 48.9958 25.5975L48.4454 25.8564C48.3977 25.7324 48.3348 25.6417 48.2568 25.5839C48.1786 25.5264 48.0796 25.4977 47.9607 25.4977C47.7927 25.4977 47.6482 25.5429 47.5276 25.6323C47.4077 25.7224 47.329 25.8428 47.2926 25.9939C47.236 26.2311 47.4003 26.452 47.7858 26.6569C47.8154 26.6729 47.8386 26.6859 47.8553 26.6948C48.1926 26.8743 48.412 27.0501 48.5125 27.2218C48.6133 27.3937 48.6331 27.6079 48.5714 27.8647C48.482 28.2388 48.2963 28.5357 48.014 28.7558C47.7318 28.9758 47.3952 29.0859 47.0048 29.0859C46.6769 29.0859 46.427 29.0088 46.2549 28.8541C46.0823 28.6996 45.9981 28.4787 46.0021 28.1909Z" fill="white"/>
<path d="M50.6221 28.9805L51.5668 25.0337H52.1922L51.2474 28.9805H50.6221Z" fill="white"/>
<path d="M52.1465 28.9797L53.1287 24.8766L54.9951 27.2894C55.045 27.3574 55.0954 27.4303 55.1451 27.5077C55.1948 27.585 55.2457 27.672 55.2978 27.7692L55.953 25.0329H56.5311L55.5495 29.1328L53.6439 26.677C53.5929 26.6108 53.5451 26.5408 53.5008 26.467C53.4562 26.3932 53.4156 26.3159 53.3786 26.2352L52.7219 28.9797H52.1465Z" fill="white"/>
<path d="M58.5266 25.5781L57.712 28.9805H57.0869L57.901 25.5781H56.8789L57.0093 25.0337H59.6738L59.5436 25.5781H58.5266Z" fill="white"/>
<path d="M59.207 28.9805L60.1518 25.0337H62.2986L62.1684 25.5781H60.6469L60.41 26.5675H61.9315L61.7966 27.131H60.2751L59.9699 28.4062H61.4914L61.3538 28.9805H59.207Z" fill="white"/>
<path d="M63.2388 26.7157H63.352C63.6828 26.7157 63.9122 26.6765 64.0398 26.5974C64.1673 26.5182 64.2556 26.3782 64.3033 26.1767C64.3554 25.9593 64.334 25.806 64.2384 25.7172C64.1436 25.6278 63.9383 25.5835 63.6231 25.5835H63.5099L63.2388 26.7157ZM63.08 27.2144L62.6571 28.9805H62.0713L63.0163 25.0337H63.8886C64.1443 25.0337 64.3387 25.0507 64.4713 25.085C64.6042 25.1191 64.7112 25.1755 64.7921 25.2549C64.8885 25.3498 64.9509 25.4733 64.9799 25.6243C65.0082 25.775 65.0008 25.9404 64.958 26.1198C64.8824 26.4362 64.7487 26.6838 64.557 26.8629C64.3652 27.0414 64.1196 27.1491 63.8202 27.1848L64.715 28.9805H64.0079L63.1509 27.2144H63.08Z" fill="white"/>
<path d="M65.0859 28.9805L66.0307 25.0337H68.1775L68.0473 25.5781H66.5256L66.29 26.5621H67.8117L67.6768 27.1255H66.1553L65.7113 28.9805H65.0859Z" fill="white"/>
<path d="M68.9021 27.4304H69.9744L69.7954 26.5298C69.7867 26.4725 69.7789 26.4065 69.772 26.3318C69.7656 26.2572 69.7611 26.174 69.7582 26.0824C69.7165 26.1687 69.6748 26.2491 69.6334 26.3238C69.5919 26.3983 69.5513 26.4669 69.5116 26.5298L68.9021 27.4304ZM70.2605 28.9805L70.0672 27.9641H68.543L67.853 28.9805H67.1963L70.0411 24.8774L70.9199 28.9805H70.2605Z" fill="white"/>
<path d="M74.9903 25.9939C74.8505 25.8394 74.6913 25.7235 74.5125 25.6461C74.3342 25.5692 74.1362 25.5302 73.9189 25.5302C73.4987 25.5302 73.1232 25.6686 72.7935 25.9453C72.4634 26.2222 72.2458 26.5807 72.1403 27.0212C72.0385 27.4472 72.0828 27.7983 72.2732 28.075C72.4636 28.3518 72.7543 28.4905 73.1446 28.4905C73.3727 28.4905 73.5992 28.449 73.8248 28.3663C74.0504 28.2836 74.278 28.1588 74.507 27.9914L74.3333 28.7168C74.1356 28.8407 73.9302 28.9335 73.7178 28.9943C73.5051 29.0554 73.2833 29.0859 73.0521 29.0859C72.7579 29.0859 72.4975 29.0367 72.2716 28.9377C72.0456 28.8389 71.8608 28.6936 71.7179 28.501C71.5757 28.3124 71.4845 28.0901 71.4455 27.8337C71.4058 27.5778 71.4207 27.305 71.4898 27.0154C71.5592 26.7262 71.6749 26.4545 71.8365 26.2001C71.9979 25.9458 72.1974 25.7224 72.4342 25.5302C72.6718 25.336 72.9259 25.1893 73.1966 25.0893C73.4674 24.9898 73.7468 24.9397 74.0341 24.9397C74.2602 24.9397 74.4675 24.9736 74.6563 25.0411C74.8451 25.1082 75.0195 25.2101 75.1798 25.3472L74.9903 25.9939Z" fill="white"/>
<path d="M75.0508 28.9805L75.9956 25.0337H78.1424L78.012 25.5781H76.4907L76.2537 26.5675H77.7752L77.6403 27.131H76.1188L75.8136 28.4062H77.3351L77.1976 28.9805H75.0508Z" fill="white"/>
<path d="M63.6454 21.5938H59.3467L65.3252 0.001894H69.6242L63.6454 21.5938Z" fill="white"/>
<path d="M61.4129 0.686859C61.1149 0.275999 60.6552 0.0686741 60.0308 0.0686741H36.3922L35.2214 4.29765H39.5226V4.2952H56.7258L55.4743 8.81443H38.2706L38.2722 8.80506H33.9727L30.4043 21.6875H34.7059L37.1007 13.0409H56.4389C57.0428 13.0409 57.6113 12.835 58.1459 12.423C58.6794 12.0106 59.0305 11.5021 59.1988 10.8948L61.5933 2.24648C61.768 1.61893 61.7076 1.09816 61.4129 0.686859Z" fill="white"/>
<path d="M27.9001 20.2489C27.6627 21.1039 26.8842 21.6953 25.9967 21.6953H3.81723C3.21287 21.6953 2.76367 21.4893 2.46829 21.0778C2.17313 20.6658 2.10982 20.1562 2.27857 19.5492L7.69041 0.0680141H11.9932L7.15939 17.4677H24.3709L29.2047 0.0680141H33.5066L27.9001 20.2489Z" fill="white"/>
<path d="M77.0484 0.0425911L82.491 10.8665L71.0498 21.6875L77.0484 0.0425911Z" fill="#27803B"/>
<path d="M73.2329 0.0425911L78.6715 10.8665L67.2256 21.6875L73.2329 0.0425911Z" fill="#E9661C"/>
</g>
</g>
<defs>
<clipPath id="clip0_984_598">
<rect width="82.4917" height="29.1432" fill="white"/>
</clipPath>
</defs>
</svg>
